<svg xmlns="http://www.w3.org/2000/svg" width="630" height="230" viewBox="0 0 630 230"><path d="M151.57,16.28a5,5,0,0,0-5.09-8.61L81.1,46.32,15.71,7.67a5,5,0,0,0-5.08,8.61l26.22,15.5v40.7L10.63,88a5,5,0,1,0,5.08,8.61L81.1,57.94l65.38,38.65A5,5,0,1,0,151.57,88l-26.22-15.5V31.78ZM46.85,66.57V37.69L71.27,52.13Zm68.5-20h-6a5,5,0,0,0,0,10h6v10L90.92,52.13l24.43-14.44Z"/><path d="M619.37,217.54,593.15,202v-40.7l26.22-15.5a5,5,0,0,0-5.08-8.61L548.9,175.88l-65.38-38.65a5,5,0,1,0-5.09,8.61l26.22,15.5V202l-26.22,15.5a5,5,0,1,0,5.09,8.61L548.9,187.5l65.39,38.65a5,5,0,0,0,5.08-8.61ZM514.65,196.13V167.25l24.43,14.44Zm68.5-28.88v8.84h-6a5,5,0,0,0,0,10h6v10l-24.42-14.44Z"/><path d="M482.72,93.18c0,.18.09.36.14.53s.05.22.09.33a.47.47,0,0,0,.05.1c0,.1.09.19.13.29s.18.35.28.52l.17.25a6.26,6.26,0,0,0,.41.49l.16.18a5.11,5.11,0,0,0,.68.55l.09.06a4.32,4.32,0,0,0,.67.36l.28.11a5.58,5.58,0,0,0,.58.18l.28.07a5.49,5.49,0,0,0,.9.09,5.11,5.11,0,0,0,.95-.1c.13,0,.25-.07.38-.1s.29-.07.43-.12L534.1,80.2l42.69,16a3.45,3.45,0,0,0,.43.12l.38.11a5.09,5.09,0,0,0,.95.09,5.49,5.49,0,0,0,.9-.09l.28-.06a3.93,3.93,0,0,0,.58-.19l.28-.11a4.32,4.32,0,0,0,.67-.36l.09,0a4.5,4.5,0,0,0,.68-.56l.16-.18a3.94,3.94,0,0,0,.41-.49l.17-.25c.1-.16.19-.34.28-.52s.09-.19.13-.29a.41.41,0,0,0,.05-.09c0-.11,0-.22.09-.33s.1-.35.14-.54a4.89,4.89,0,0,0,0-.55c0-.11,0-.22,0-.34V61.67L611.92,51a5,5,0,0,0-3.51-9.37L534.1,69.53,492.63,54V14.44a5,5,0,1,0-10,0V92.29c0,.11,0,.22,0,.34A5.35,5.35,0,0,0,482.72,93.18Zm90.83-27.77V84.32l-25.21-9.45Zm-53.69,9.46-27.23,10.2V64.66Z"/><path d="M190.51,97.29a5,5,0,0,0,3.19-1.15l10.14-8.4h84.25a5,5,0,0,0,0-10H215.92l31.74-26.26h40.43a5,5,0,0,0,5-5v-35a1.81,1.81,0,0,0,0-.23,3.05,3.05,0,0,0-.05-.52,3.4,3.4,0,0,0-.09-.46,3.68,3.68,0,0,0-.15-.47,3.66,3.66,0,0,0-.18-.46c-.07-.14-.15-.28-.23-.41s-.19-.3-.29-.44-.08-.13-.13-.19l-.16-.16c-.12-.13-.24-.25-.37-.37a3.47,3.47,0,0,0-.37-.3c-.13-.1-.27-.18-.41-.27s-.27-.16-.42-.23-.3-.12-.45-.18l-.46-.14a3.89,3.89,0,0,0-.47-.09,3,3,0,0,0-.52,0l-.22,0H202.15a5,5,0,0,0,0,10h72l-30.14,25H202.15a5,5,0,0,0-5,5V80.3l-9.83,8.14a5,5,0,0,0,3.19,8.85Zm92.58-75.14V41.48H259.74ZM207.15,51.48H232L207.15,72Z"/><path d="M327.33,97.29h70.73a5,5,0,0,0,5-5V59.75l21.42-22L458,66.83a5,5,0,0,0,6.56-7.55L401.34,4.38a2.44,2.44,0,0,0-.23-.16,4.37,4.37,0,0,0-.44-.31,2.73,2.73,0,0,0-.41-.22,3.82,3.82,0,0,0-.46-.21,4,4,0,0,0-.46-.14l-.47-.11-.53,0c-.09,0-.18,0-.28,0l-.17,0-.53.05a4,4,0,0,0-.46.08l-.46.14-.45.17c-.15.07-.28.15-.42.23a3.66,3.66,0,0,0-.42.26l-.36.29c-.13.12-.26.24-.38.37l-.13.11c-.06.08-.1.16-.16.23l-.31.44-.22.41c-.07.15-.14.3-.2.46a3.68,3.68,0,0,0-.15.47c0,.15-.07.3-.1.46a4.75,4.75,0,0,0-.05.53c0,.1,0,.19,0,.28V55.69l-30.74,31.6h-35a5,5,0,0,0,0,10Zm75.73-78.17,13.86,12L403.06,45.4ZM393.06,70V87.29H376.27Z"/><path d="M333,139a5,5,0,0,0-5,5v77.85c0,.11,0,.22,0,.34s0,.36.06.55a4.58,4.58,0,0,0,.14.53c0,.11.05.22.09.33a1,1,0,0,1,0,.1c0,.1.09.19.14.29a5.21,5.21,0,0,0,.28.52l.17.25a6.12,6.12,0,0,0,.4.49l.17.18a5,5,0,0,0,.67.55l.1.06a4.22,4.22,0,0,0,.66.36l.28.11a5.76,5.76,0,0,0,.59.18l.28.07a5.28,5.28,0,0,0,.9.09,5,5,0,0,0,.94-.1c.13,0,.26-.07.38-.1s.29-.07.43-.12l44.71-16.77,42.7,16a3.45,3.45,0,0,0,.43.12l.38.11a5,5,0,0,0,.94.09,5.28,5.28,0,0,0,.9-.09l.28-.06a4.06,4.06,0,0,0,.59-.19l.28-.11a4.22,4.22,0,0,0,.66-.36l.1-.05a5.1,5.1,0,0,0,.67-.56c.06,0,.11-.12.17-.18a3.88,3.88,0,0,0,.4-.49,2.2,2.2,0,0,0,.17-.25,3.25,3.25,0,0,0,.28-.52,2.59,2.59,0,0,0,.14-.29l0-.09a2,2,0,0,0,.09-.33,4.75,4.75,0,0,0,.14-.54,3.31,3.31,0,0,0,.06-.55c0-.11,0-.22,0-.34V191.22l28.38-10.63a5,5,0,1,0-3.51-9.37L379.5,199.09,338,183.54V144A5,5,0,0,0,333,139ZM419,195v18.91l-25.2-9.46Zm-53.69,9.45L338,214.63V194.22Z"/><path d="M44,171a5,5,0,0,0-5,5v33.83L29.12,218a5,5,0,1,0,6.38,7.71l10.14-8.39h84.25a5,5,0,0,0,0-10H57.72L89.46,181h40.43a5,5,0,0,0,5-5V141.08c0-.08,0-.15,0-.23a4.6,4.6,0,0,0-.06-.52,3.4,3.4,0,0,0-.09-.46c0-.16-.09-.32-.14-.47s-.12-.31-.19-.46-.14-.28-.22-.41-.19-.3-.3-.44-.08-.13-.13-.19l-.16-.16-.37-.37a3.47,3.47,0,0,0-.37-.3,6,6,0,0,0-.83-.5,4.69,4.69,0,0,0-.45-.18l-.46-.14a3.55,3.55,0,0,0-.47-.09,2.94,2.94,0,0,0-.51,0,1.81,1.81,0,0,0-.23,0H44a5,5,0,0,0,0,10H116L85.86,171Zm5,30.55V181H73.78Zm75.94-49.87V171H101.54Z"/><path d="M172.32,226.85h70.73a5,5,0,0,0,5-5V189.31l21.42-22L303,196.39a5,5,0,0,0,6.56-7.55l-63.23-54.9c-.08-.07-.16-.11-.23-.17a4.27,4.27,0,0,0-.44-.3,4.23,4.23,0,0,0-.41-.23l-.46-.2a3.64,3.64,0,0,0-.47-.14l-.46-.11a4.75,4.75,0,0,0-.53,0c-.1,0-.19,0-.28,0l-.17,0-.53.05a3.25,3.25,0,0,0-.45.08l-.48.15-.44.16c-.15.07-.29.15-.43.23s-.28.16-.41.26l-.36.29c-.13.12-.26.24-.38.37l-.13.11c-.06.08-.1.16-.16.23l-.31.44-.22.41c-.07.15-.14.3-.2.46a3.68,3.68,0,0,0-.15.47c0,.15-.07.3-.1.46a4.75,4.75,0,0,0,0,.53c0,.1,0,.19,0,.28v47.54l-30.74,31.6h-35a5,5,0,0,0,0,10Zm75.73-78.17,13.86,12L248.05,175Zm-10,50.91v17.26H221.26Z"/></svg>