<svg xmlns="http://www.w3.org/2000/svg" width="186.89" height="205.74" viewBox="0 0 186.89 205.74"><polygon points="110.89 116.31 110.48 135.92 136.65 126.92 166.02 136.03 165.94 115.1 138.78 124.27 110.89 116.31" fill="#00cec9"/><polygon points="49.57 92.65 63.55 106.52 49.45 124.05 48.62 144.08 29.83 144.15 46.4 124.97 49.57 92.65" fill="#fab1a0"/><polygon points="116.88 31.24 116.95 50.03 144.56 30.8 170.38 30.59 169.53 10.6 144.55 28.82 116.88 31.24" fill="#ffeaa7"/><polygon points="23.57 24.47 23.66 48.53 46.25 37.56 70.37 51.75 70.91 21.75 44.92 34.82 23.57 24.47" fill="#ff7675"/><path d="M10.09,129a3,3,0,0,1-2-5.27L46.58,88.92a3,3,0,0,1,4.06,0l38,34.47a3,3,0,1,1-4.07,4.47L48.6,95.25,12.1,128.18A3,3,0,0,1,10.09,129Z"/><path d="M91.57,147.5l-85.95.33a3,3,0,0,1,0-6.05l85.94-.33a3,3,0,0,1,0,6.05Z"/><path d="M48.41,146.49a3,3,0,0,1-3-3l-.2-50.9a3,3,0,0,1,6,0l.2,50.9A3,3,0,0,1,48.41,146.49Z"/><path d="M87.34,64.48a3,3,0,0,1-1.54-.41L1.5,14.68A3,3,0,0,1,4.55,9.46L88.86,58.85a3,3,0,0,1-1.52,5.63Z"/><path d="M3.24,64.82a3,3,0,0,1-1.57-5.63l83.91-50a3,3,0,0,1,3.1,5.2L4.77,64.39A3.05,3.05,0,0,1,3.24,64.82Z"/><path d="M22.94,52.11a3,3,0,0,1-3-3l-.1-24.37a3,3,0,0,1,6.05,0L26,49.07A3,3,0,0,1,22.94,52.11Z"/><path d="M8.41,60.51a3,3,0,0,1-3-3l-.17-41a3,3,0,0,1,6.05,0l.17,41A3,3,0,0,1,8.41,60.51Z"/><path d="M71,68.33a3,3,0,0,1-3-3L67.71,8.14a3,3,0,1,1,6.05,0L74,65.29A3,3,0,0,1,71,68.33Z"/><path d="M84,73.33a3,3,0,0,1-3-3L80.73,3a3,3,0,1,1,6,0L87,70.29A3,3,0,0,1,84,73.33Z"/><path d="M69.44,39.33l-6.53,0a3,3,0,0,1,0-6l6.54,0a3,3,0,0,1,0,6Z"/><path d="M109.25,139.82a3,3,0,0,1-1.08-5.86l74-28.08a3,3,0,1,1,2.15,5.65l-74,28.09A3.26,3.26,0,0,1,109.25,139.82Z"/><path d="M164.25,139.14a3,3,0,0,1-1.06-.19l-55.08-20.4a3,3,0,1,1,2.1-5.67l55.08,20.4a3,3,0,0,1-1,5.86Z"/><path d="M109.25,139.82a3,3,0,0,1-3-3L106,89.71a3,3,0,1,1,6,0l.19,47.09A3,3,0,0,1,109.25,139.82Z"/><path d="M165.88,152.08a3,3,0,0,1-3-3l-.24-59.58a3,3,0,0,1,6.05,0l.24,59.58A3,3,0,0,1,165.88,152.08Z"/><path d="M169.72,55.29l-52,.21a3,3,0,0,1-3-3l-.09-22a3,3,0,0,1,3-3l49-.19-.06-15.1-49,.19a3,3,0,0,1,0-6l52-.2a3,3,0,0,1,3,3l.08,21.15a3,3,0,0,1-3,3l-49,.2.06,15.89,49-.2a3,3,0,0,1,0,6Z"/><path d="M183.88,68.54l-82.24.33a3,3,0,0,1-2-5.35L167.6,6.86a3,3,0,1,1,3.87,4.65L110,62.78l73.84-.29a3,3,0,0,1,0,6.05Z"/><path d="M26.93,147.75a3,3,0,0,1-2.19-5.13l37.68-39a3,3,0,1,1,4.35,4.2L29.09,146.83A3,3,0,0,1,26.93,147.75Z"/><path d="M8.8,175.33a3.46,3.46,0,0,1,3.46-3.46h9.67c4.12,0,6.17,1.78,6.17,5.32V188c0,3.54-2.05,5.31-6.17,5.31H15.31v9.2a3.25,3.25,0,0,1-3.26,3.25h0a3.24,3.24,0,0,1-3.25-3.25Zm12.79,11.79v-9.07a1.5,1.5,0,0,0-.34-1.16A2,2,0,0,0,20,176.6h-4.7v12H20a1.9,1.9,0,0,0,1.24-.3A1.47,1.47,0,0,0,21.59,187.12Z" fill="#231f20"/><path d="M40.16,201H51v4.72H35.93a2.33,2.33,0,0,1-2.33-2.33V174.2a2.33,2.33,0,0,1,2.33-2.33H50.58v4.73H40.16V186h8.78v4.78H40.16Z" fill="#231f20"/><path d="M62.58,192.54v13.2H56.07V175.11a3.24,3.24,0,0,1,3.24-3.24h9.9c4.11,0,6.17,1.78,6.17,5.32v10q0,4.4-4.13,5.15l5.94,13.36h-7l-5.43-13.2Zm0-15.94V188h4.7a1.93,1.93,0,0,0,1.25-.3,1.47,1.47,0,0,0,.34-1.15v-8.48a1.5,1.5,0,0,0-.34-1.16,2,2,0,0,0-1.25-.29Z" fill="#231f20"/><path d="M93.05,199.57v-7.24a1.54,1.54,0,0,0-.34-1.16,2,2,0,0,0-1.25-.29H86.87c-3.88,0-5.83-1.79-5.83-5.37v-8.32c0-3.54,2-5.32,6.12-5.32h6.23c4.07,0,6.11,1.78,6.11,5.32v4.72H92.93v-3.86a1.5,1.5,0,0,0-.34-1.16,2,2,0,0,0-1.24-.29H89.2a2.14,2.14,0,0,0-1.31.29,1.54,1.54,0,0,0-.34,1.16v6.81a1.54,1.54,0,0,0,.34,1.16,2.07,2.07,0,0,0,1.31.29h4.47c4,0,5.94,1.76,5.94,5.26v8.86c0,3.54-2,5.31-6.17,5.31H87.33c-4.12,0-6.17-1.77-6.17-5.31v-4.67h6.51v3.81a1.52,1.52,0,0,0,.34,1.16,2.1,2.1,0,0,0,1.3.29h2.15a2,2,0,0,0,1.25-.29A1.56,1.56,0,0,0,93.05,199.57Z" fill="#231f20"/><path d="M111.56,171.87h6.91c4.11,0,6.17,1.78,6.17,5.32v23.24q0,5.31-6.17,5.31h-6.91q-6.16,0-6.17-5.31V177.19C105.39,173.65,107.45,171.87,111.56,171.87Zm6.57,27.7V178.05a1.54,1.54,0,0,0-.34-1.16,2,2,0,0,0-1.25-.29h-3a2.12,2.12,0,0,0-1.3.29,1.5,1.5,0,0,0-.34,1.16v21.52a1.52,1.52,0,0,0,.34,1.16,2.12,2.12,0,0,0,1.3.29h3a2,2,0,0,0,1.25-.29A1.56,1.56,0,0,0,118.13,199.57Z" fill="#231f20"/><path d="M145,171.87H151v33.87h-6.12l-7.64-22.43v22.43h-6V171.87h6.28L145,194Z" fill="#231f20"/><path d="M172.42,205.74l-1.35-7h-7.82l-1.24,7H155.5l6.27-29.55a5.44,5.44,0,0,1,5.33-4.32h0a5.44,5.44,0,0,1,5.31,4.27l6.58,29.6ZM164.1,194h6.06l-3.11-16.21Z" fill="#231f20"/></svg>