<svg xmlns="http://www.w3.org/2000/svg" width="129.96" height="120.68" viewBox="0 0 129.96 120.68"><path d="M129.14,93.87l-60-91.61,0,0-.08-.1a5.18,5.18,0,0,0-.47-.58l-.14-.14a4.55,4.55,0,0,0-.64-.52L67.67.8A4.36,4.36,0,0,0,67,.45L66.87.38a4.63,4.63,0,0,0-.8-.25l-.2,0A5.27,5.27,0,0,0,65,0a5.38,5.38,0,0,0-.9.09l-.19,0a4.37,4.37,0,0,0-.8.25l-.17.07a5.71,5.71,0,0,0-.64.35l-.14.09a4.55,4.55,0,0,0-.64.52l-.13.14a6.71,6.71,0,0,0-.48.58.86.86,0,0,1-.07.1l0,0L.82,93.87A5,5,0,0,0,5,101.61H48l13,17.1.15.17.12.15a5.17,5.17,0,0,0,.64.6l0,0,.09,0a4.32,4.32,0,0,0,.53.34l.15.08a5.3,5.3,0,0,0,.65.28l.16,0,.54.13.22,0a5,5,0,0,0,.67.05h0a5.19,5.19,0,0,0,.68-.05l.21,0,.54-.13.16,0a5.44,5.44,0,0,0,.66-.28l.15-.08a4.21,4.21,0,0,0,.52-.34l.09,0,0,0a5.17,5.17,0,0,0,.64-.6l.13-.15a2.09,2.09,0,0,0,.14-.17l13-17.1h43a5,5,0,0,0,4.18-7.74ZM60,85.72l-26.8-23L60,21.77ZM70,21.77,96.77,62.69,70,85.72ZM27.66,71.13,51.49,91.61H14.25ZM65,107.44l-4.45-5.83h8.89ZM78.47,91.61,102.3,71.13l13.41,20.48Z"/></svg>