<svg xmlns="http://www.w3.org/2000/svg" width="120.35" height="120.35" viewBox="0 0 120.35 120.35"><path d="M118.88,44.61,75.74,1.46a5,5,0,0,0-7.07,0L3.86,66.28a1.78,1.78,0,0,0-.22.26,3.31,3.31,0,0,0-.25.3,4.53,4.53,0,0,0-.3.46c-.07.12-.14.23-.2.35a4.65,4.65,0,0,0-.2.52c0,.12-.09.24-.13.37s-.08.42-.11.64,0,.17-.05.27a.43.43,0,0,1,0,0,.07.07,0,0,0,0,0L0,115.08a5,5,0,0,0,5,5.27h.26L50.79,118h.11a1.51,1.51,0,0,0,.28,0,3.22,3.22,0,0,0,.62-.11,2.55,2.55,0,0,0,.39-.13l.5-.19.38-.22a4.94,4.94,0,0,0,.42-.27l.34-.28c.08-.07.17-.13.24-.2l64.81-64.81A5,5,0,0,0,118.88,44.61ZM72.2,12.07l36.08,36.07-3.63,3.63L68.58,15.7Zm13.65,58.5L52.25,68.1,49.78,34.5,61.51,22.77,97.58,58.84ZM21.34,99A11.91,11.91,0,0,0,11,95.66l1.08-20.49,30.79,2.27,2.26,30.79-20.48,1.08A11.94,11.94,0,0,0,21.34,99ZM18.65,65.63,40.44,43.84l1.73,23.52ZM53,78.18l23.52,1.73L54.72,101.7Z"/></svg>