<svg xmlns="http://www.w3.org/2000/svg" width="217.24" height="209.91" viewBox="0 0 217.24 209.91"><path d="M118.16,152l27.19-45.11a.91.91,0,0,0,.07-.14c.09-.15.17-.3.25-.45l.14-.3.18-.44c0-.11.09-.23.13-.34l.12-.41c0-.14.07-.27.1-.41s0-.24.08-.36.05-.31.07-.47l0-.33c0-.17,0-.34,0-.51s0-.1,0-.15,0-.12,0-.19,0-.31,0-.47,0-.26,0-.39l-.06-.39c0-.15,0-.29-.09-.44s-.05-.22-.08-.33-.09-.31-.14-.46-.07-.21-.11-.31l-.18-.43c0-.11-.1-.22-.16-.33s-.12-.25-.19-.37-.15-.25-.22-.37l-.2-.3c-.09-.13-.18-.25-.28-.37l-.21-.26c-.1-.12-.21-.24-.32-.35l-.24-.25-.33-.3-.31-.26-.3-.22c-.13-.1-.27-.19-.41-.28l-.14-.09-.13-.08-.46-.24-.3-.14c-.14-.07-.28-.12-.43-.18l-.36-.13-.38-.12L140,94.4l-.32-.06-.52-.08-.28,0-.57,0H78.11A8.35,8.35,0,0,0,71,106.91l27.63,45.21L71.86,197.29l-.06.12c-.09.15-.16.3-.24.45s-.1.2-.14.3-.12.29-.18.44l-.13.34c0,.13-.07.27-.11.4s-.08.28-.11.42l-.06.34c0,.17-.06.33-.08.49s0,.21,0,.31a4.71,4.71,0,0,0,0,.53s0,.08,0,.12,0,.13,0,.2,0,.33,0,.49,0,.25,0,.38l.06.41.09.43.09.34c0,.15.09.3.14.45s.07.21.11.31l.18.43c0,.11.1.22.16.33s.13.25.19.37l.22.36.2.3c.09.13.19.25.28.37l.21.26c.11.12.21.24.33.35a1.75,1.75,0,0,0,.23.24l.34.31.3.25.33.24.38.26c.07,0,.12.08.18.11l.1,0a8.14,8.14,0,0,0,1.87.79l.3.08c.22.06.45.1.68.14l.33,0a7.89,7.89,0,0,0,.84.05h60.22a8.36,8.36,0,0,0,7.1-12.77Zm-9.8-41.07h15l-15.09,25-15.3-25ZM93.71,193.19l14.83-25,15.56,25Z"/><path d="M108.62,83.2A41.6,41.6,0,1,0,67,41.6,41.64,41.64,0,0,0,108.62,83.2Zm0-66.49A24.89,24.89,0,1,1,83.73,41.6,24.92,24.92,0,0,1,108.62,16.71Z"/></svg>