<svg xmlns="http://www.w3.org/2000/svg" width="252" height="252" viewBox="0 0 252 252"><circle cx="126" cy="126" r="126" fill="#3b3b3b" opacity="0.94" style="isolation:isolate"/><path d="M176.48,111.93a4.71,4.71,0,0,0,.09-.52,4.67,4.67,0,0,0,0-.52,3.13,3.13,0,0,0,0-.53,4.43,4.43,0,0,0-.06-.51c0-.17-.07-.34-.11-.51a4.76,4.76,0,0,0-.19-.53c0-.1,0-.2-.1-.3s-.06-.1-.09-.16a4.94,4.94,0,0,0-.3-.49c-.09-.14-.17-.28-.27-.41s-.24-.27-.36-.4a4.44,4.44,0,0,0-.38-.37,4.17,4.17,0,0,0-.4-.3l-.47-.31-.16-.1-8.2-4.22a1.81,1.81,0,0,0,0-.23V73.72a5.08,5.08,0,0,0-.2-1.36l8.47-4.58a5.4,5.4,0,1,0-5.14-9.49L126,81.37,83.28,59a5.4,5.4,0,1,0-5,9.56l8.29,4.34a5.56,5.56,0,0,0-.09.82v27.8a5.43,5.43,0,0,0,.09.81l-8.32,4.42a5.4,5.4,0,0,0,2.54,10.16,5.32,5.32,0,0,0,2.52-.63L126,93.57l32.87,16.93-35.17,16.19a5.4,5.4,0,0,0-3.14,4.9v22.48a5.4,5.4,0,0,0,10.8,0v-19l42.09-19.38.11-.06a5.75,5.75,0,0,0,.71-.42l.18-.13a5.86,5.86,0,0,0,.7-.62,1.71,1.71,0,0,1,.11-.14,5.65,5.65,0,0,0,.45-.61,1.28,1.28,0,0,0,.15-.25l.13-.2c0-.09.07-.19.11-.28a5,5,0,0,0,.21-.54C176.4,112.26,176.44,112.1,176.48,111.93ZM154.73,96.2l-17.16-8.84,17.16-9.27ZM97.27,78.52l17.17,9L97.27,96.64Z" fill="#fff"/><path d="M126,165.63A14.37,14.37,0,1,0,140.37,180,14.38,14.38,0,0,0,126,165.63Zm0,17.94a3.57,3.57,0,1,1,3.57-3.57A3.57,3.57,0,0,1,126,183.57Z" fill="#fff"/></svg>