<svg xmlns="http://www.w3.org/2000/svg" width="245.18" height="173.16" viewBox="0 0 245.18 173.16"><path d="M244.71,38.92a8.33,8.33,0,0,0-5-5.09L149.81.51h0c-.25-.09-.51-.17-.77-.24l-.18,0-.58-.11-.34,0-.42,0-.37,0h-.4l-.37,0-.42,0-.33,0-.48.09-.25.06q-.3.07-.6.18l-.13,0a8.21,8.21,0,0,0-2.08,1.07l-.23.18c-.11.09-.23.17-.33.26L55.21,75.26l-40-57.32a8.35,8.35,0,0,0-15,6.44l21.61,106.7.09.42a8.36,8.36,0,0,0,.91,2.22c4.72,8.36,12.73,12.3,21.39,13.68l116,25.56.36.06.33,0a8.3,8.3,0,0,0,1.11.09,7.93,7.93,0,0,0,1-.07l.16,0a8.05,8.05,0,0,0,1.87-.49l.18-.07a7.49,7.49,0,0,0,.86-.41h0c.26-.15.52-.32.76-.49l.19-.14q.38-.28.72-.6l.07-.08a7.57,7.57,0,0,0,.61-.66l.11-.13c.21-.27.4-.54.58-.82,0,0,0,0,0,0L244,46A8.35,8.35,0,0,0,244.71,38.92Zm-130.33,8L73,116.89,63.44,90.2ZM47.32,131a9.07,9.07,0,0,0-1.26-.17,15.22,15.22,0,0,1-5.94-2.3l11.8-20.92,8.24,22.93a45.39,45.39,0,0,1-12.49.54ZM24.54,60.52,43.75,88.05l-10,17.78Zm133.68,94.35L83.73,131.62l66.82-113L224.41,46Z"/></svg>