<svg xmlns="http://www.w3.org/2000/svg" width="64.23" height="124.77" viewBox="0 0 64.23 124.77"><path d="M24.36,82.88a46.41,46.41,0,0,1,.79-9,23.17,23.17,0,0,1,3.41-7.66l14.5-21.6q4-6.12,4-11.49-.16-7.3-4.6-11.48a14.62,14.62,0,0,0-9.86-4,14.63,14.63,0,0,0-10.76,4.16c-2.67,2.44-4.22,6.31-4.64,11.64a3.46,3.46,0,0,1-3.46,3.16H3.47A3.47,3.47,0,0,1,0,33.14H0Q.17,18.73,9.6,9.49A30.75,30.75,0,0,1,31.75,0,32.91,32.91,0,0,1,54.31,8.81q9.77,9.06,9.92,24.48-.15,11-5.22,18.29L44.28,73.35a18.69,18.69,0,0,0-2.78,11v6.46A3.47,3.47,0,0,1,38,94.25H27.83a3.47,3.47,0,0,1-3.47-3.47Zm3.47,24.24H38a3.47,3.47,0,0,1,3.47,3.47v10.7A3.47,3.47,0,0,1,38,124.77H27.83a3.48,3.48,0,0,1-3.47-3.48v-10.7A3.48,3.48,0,0,1,27.83,107.12Z"/></svg>