<svg xmlns="http://www.w3.org/2000/svg" width="59" height="121" viewBox="0 0 59 121"><path d="M1.64,61.29v14.8l24.6-12.58,4.34-2.22,26.78.79V47.33L33,60.12l-4.74,2Z" fill="#ff7675"/><path d="M29.5,0h0A29.5,29.5,0,0,1,59,29.5v62A29.5,29.5,0,0,1,29.5,121h0A29.5,29.5,0,0,1,0,91.5v-62A29.5,29.5,0,0,1,29.5,0Z" fill="none"/><path d="M29.5,0A29.53,29.53,0,0,0,0,29.5v62a29.5,29.5,0,0,0,59,0v-62A29.53,29.53,0,0,0,29.5,0ZM56,60.57l-19.72-.28L56,50.15ZM29.5,3A26.53,26.53,0,0,1,56,29.5V46.77L29.9,60.2,3,59.81V29.5A26.53,26.53,0,0,1,29.5,3ZM3,62.81l21.22.31L3,74ZM29.5,118A26.53,26.53,0,0,1,3,91.5V77.4L30.6,63.21l25.4.36V91.5A26.53,26.53,0,0,1,29.5,118Z"/></svg>