<svg xmlns="http://www.w3.org/2000/svg" fill="#ffffff" viewBox="0 0 100 100">
                    <path d="M94.44,73.22,52.9,9.77l0,0-.05-.07a4.12,4.12,0,0,0-.33-.4l-.09-.09A3.16,3.16,0,0,0,52,8.82l-.09-.06a3.88,3.88,0,0,0-.45-.24l-.11,0a2.69,2.69,0,0,0-.55-.17l-.14,0a3.23,3.23,0,0,0-1.24,0l-.14,0a2.69,2.69,0,0,0-.55.17l-.11,0a3.88,3.88,0,0,0-.45.24L48,8.82a3.16,3.16,0,0,0-.45.37l-.09.09a4.12,4.12,0,0,0-.33.4l-.05.07,0,0L5.56,73.22a3.46,3.46,0,0,0,2.9,5.36H38.21l9,11.85.1.12.08.1a3.47,3.47,0,0,0,.45.41s0,0,0,0l.06,0a2.92,2.92,0,0,0,.37.24l.1,0a4.43,4.43,0,0,0,.45.2l.11,0c.13,0,.25.07.38.09l.15,0a2.38,2.38,0,0,0,.46,0h0a2.38,2.38,0,0,0,.46,0l.15,0a2.62,2.62,0,0,0,.38-.09l.11,0a4.43,4.43,0,0,0,.45-.2l.11-.06a2.41,2.41,0,0,0,.36-.23l.06,0a0,0,0,0,0,0,0,3.47,3.47,0,0,0,.45-.41l.08-.1.1-.12,9-11.85H91.54a3.46,3.46,0,0,0,2.9-5.36Zm-47.9-5.64L28,51.63,46.54,23.28Zm6.92-44.3L72,51.63,53.46,67.58ZM24.15,57.47,40.66,71.66H14.87ZM50,82.62l-3.08-4h6.16Zm9.34-11L75.85,57.47l9.28,14.19Z" />
                  </svg>