<svg xmlns="http://www.w3.org/2000/svg" width="126.08" height="135.77" viewBox="0 0 126.08 135.77"><path d="M126.05,105.23a5,5,0,0,0-.06-.54,3.56,3.56,0,0,0-.1-.47c0-.16-.09-.31-.14-.46s-.15-.34-.23-.5-.07-.17-.11-.25L112.3,80.31l13.11-22.69c0-.08.07-.17.11-.26s.16-.32.23-.49.1-.31.14-.46a3.94,3.94,0,0,0,.1-.47,5,5,0,0,0,.06-.54c0-.1,0-.19,0-.28s0-.11,0-.16,0-.36,0-.54a3.25,3.25,0,0,0-.08-.45c0-.16-.09-.31-.14-.47l-.17-.45c-.07-.15-.15-.28-.23-.42s-.16-.28-.25-.41a3.57,3.57,0,0,0-.31-.37c-.11-.12-.21-.25-.33-.36l-.35-.29-.44-.32-.13-.09-.26-.12-.49-.22c-.16-.06-.32-.1-.48-.15l-.44-.1a5.51,5.51,0,0,0-.57-.06l-.26,0H94.87L86.25,35.18h9.21a5,5,0,0,0,0-10h-15L67.37,2.48l-.16-.23c-.1-.15-.21-.3-.32-.44l-.33-.35c-.11-.12-.23-.22-.35-.33a3.65,3.65,0,0,0-.45-.32L65.54.65,65.39.58l-.5-.22A3.61,3.61,0,0,0,64.47.2,4.15,4.15,0,0,0,64,.09L63.52,0h-1l-.47.08a3.38,3.38,0,0,0-.48.11,3.61,3.61,0,0,0-.42.16c-.17.07-.34.14-.51.23a.59.59,0,0,0-.14.06l-.22.16a4.38,4.38,0,0,0-.46.33l-.34.31c-.11.12-.23.24-.33.36s-.22.29-.32.44l-.16.23-13.1,22.7H19.4l-.26,0a5.51,5.51,0,0,0-.57.06,3.63,3.63,0,0,0-.45.1,4.26,4.26,0,0,0-.47.15,4.31,4.31,0,0,0-.49.22l-.26.11-.13.1a3.54,3.54,0,0,0-.44.32,3.17,3.17,0,0,0-.35.29,2.82,2.82,0,0,0-.33.36,3.57,3.57,0,0,0-.31.37c-.09.13-.17.27-.25.41s-.16.27-.23.41a4.28,4.28,0,0,0-.17.46c0,.15-.1.3-.14.46a3.4,3.4,0,0,0-.08.46,4.53,4.53,0,0,0-.05.53c0,.06,0,.11,0,.17a2.48,2.48,0,0,0,0,.27,4.93,4.93,0,0,0,.05.54c0,.17.07.32.11.47s.09.31.14.46a3.81,3.81,0,0,0,.23.5c0,.08.06.17.11.26l13.1,22.69-8.64,15L14.94,62.4a5,5,0,1,0-8.66,5l7.47,12.95L.67,103a2.72,2.72,0,0,0-.11.25,4.52,4.52,0,0,0-.23.5,3.5,3.5,0,0,0-.14.46c0,.15-.08.31-.11.47a4.93,4.93,0,0,0,0,.54,2.4,2.4,0,0,0,0,.28v.07s0,.09,0,.14a.65.65,0,0,1,0,.14c0,.14,0,.28.06.41a3.4,3.4,0,0,0,.08.46,3.5,3.5,0,0,0,.14.46,4.28,4.28,0,0,0,.17.46c.07.14.15.28.23.41a3.45,3.45,0,0,0,.25.41c.09.13.2.25.31.38a3.61,3.61,0,0,0,.33.35,3.17,3.17,0,0,0,.35.29,3.54,3.54,0,0,0,.44.32l.13.1.47.22.11.06a6.13,6.13,0,0,0,.83.26l.19,0a4.59,4.59,0,0,0,.9.1H31.21l13.1,22.69a3.83,3.83,0,0,0,.28.42l.08.12a6,6,0,0,0,.59.64l.15.12a4.32,4.32,0,0,0,.7.51l0,0h0a2.58,2.58,0,0,0,.44.22l.16.08.2.07a4.92,4.92,0,0,0,1.68.3h0a5.06,5.06,0,0,0,1.75-.32l.13,0,.19-.09.41-.2h0l0,0a5,5,0,0,0,.7-.51l.15-.13a5.05,5.05,0,0,0,.59-.63l.08-.12c.09-.14.19-.27.28-.42l13.14-22.76H83.33l-4.61,8a5,5,0,1,0,8.66,5l7.49-13h26.21a5.49,5.49,0,0,0,.9-.09l.19,0a6.13,6.13,0,0,0,.83-.26l.11-.05.47-.23.13-.1a4.48,4.48,0,0,0,.44-.32,3.17,3.17,0,0,0,.35-.29c.12-.11.22-.23.33-.35s.22-.25.31-.38.17-.27.25-.41.16-.27.23-.41.11-.31.17-.46.1-.3.14-.46a3.54,3.54,0,0,0,.08-.45c0-.18,0-.36,0-.54s0-.11,0-.16S126.05,105.32,126.05,105.23ZM112.42,60.12l-5.89,10.19-5.88-10.19ZM63,15l5.88,10.2H57.15ZM34,45.37,28.06,35.18H39.83Zm14.69,75.4-5.89-10.19H54.52ZM13.7,100.51l5.85-10.13,5.84,10.13ZM72.6,89.26a5,5,0,0,0-6.83,1.83l-5.43,9.42H36.94L25.3,80.35l8.65-15,2.59,4.48a5,5,0,0,0,8.66-5l-5.48-9.48,2.79-4.83,8.87-15.36H74.7l8.63,14.94H78.15a5,5,0,0,0,0,10H89.1l11.66,20.19L89.1,100.51H71.88l2.55-4.42A5,5,0,0,0,72.6,89.26Zm33.93,1,5.89,10.2H100.65Z"/></svg>