<svg

                  xmlns="http://www.w3.org/2000/svg"
                  width="304.06"
                  height="741.7695"
                  viewBox="0 0 304.06 741.7695"
                >
                  <path d="M143.4,9.76a5,5,0,0,0-5.08-8.61L72.93,39.8,7.54,1.15A5,5,0,0,0,2.46,9.76l26.22,15.5V66L2.46,81.46a5,5,0,0,0,5.08,8.61L72.93,51.42l65.39,38.65a5,5,0,0,0,5.08-8.61L117.18,66V25.26ZM38.68,60.05V31.17L63.1,45.61Zm68.5-20h-6a5,5,0,0,0,0,10h6v10L82.76,45.61l24.42-14.44Z" />
                  <path d="M182.34,90.76a5,5,0,0,0,3.19-1.15l10.14-8.39h84.25a5,5,0,0,0,0-10H207.75L239.49,45h40.43a5,5,0,0,0,5-5V5a1.81,1.81,0,0,0,0-.23,3.17,3.17,0,0,0-.05-.53,3.73,3.73,0,0,0-.09-.46c0-.16-.09-.31-.14-.47s-.12-.31-.19-.46-.14-.27-.22-.4-.19-.3-.3-.45-.08-.13-.13-.19-.11-.1-.16-.16a4.17,4.17,0,0,0-.37-.36L282.87,1c-.13-.09-.26-.18-.4-.26s-.28-.16-.43-.23a4.07,4.07,0,0,0-.44-.18l-.48-.15-.45-.08a4.78,4.78,0,0,0-.53-.06l-.22,0H194a5,5,0,0,0,0,10h72L235.89,35H194a5,5,0,0,0-5,5V73.77l-9.83,8.14a5,5,0,0,0-.66,7A5,5,0,0,0,182.34,90.76Zm92.58-75.13V35H251.57ZM199,45h24.83L199,65.5Z" />
                  <path d="M35.78,164.51a5,5,0,0,0-5,5v33.82L21,211.47a5,5,0,1,0,6.38,7.7l10.14-8.39h84.25a5,5,0,0,0,0-10H49.55l31.74-26.27h40.43a5,5,0,0,0,5-5V134.56c0-.08,0-.15,0-.23a4.78,4.78,0,0,0-.06-.53,3.73,3.73,0,0,0-.09-.46c0-.16-.09-.31-.14-.47s-.12-.31-.19-.46-.14-.27-.22-.4a4.4,4.4,0,0,0-.3-.45c0-.06-.08-.13-.13-.19s-.11-.1-.16-.16a4.17,4.17,0,0,0-.37-.36l-.37-.31c-.13-.09-.26-.18-.4-.26s-.28-.16-.43-.23a3.38,3.38,0,0,0-.44-.18,4.26,4.26,0,0,0-.47-.15l-.46-.08a4.52,4.52,0,0,0-.53-.06l-.22,0H35.78a5,5,0,0,0,0,10h72.06L77.69,164.51Zm5,30.55V174.51H65.61Zm75.94-49.87v19.32H93.37Z" />
                  <path d="M164.15,220.32h70.73a5,5,0,0,0,5-5V182.78l21.42-22,33.53,29.11a5,5,0,0,0,6.56-7.55l-63.23-54.91c-.07-.06-.16-.1-.23-.16s-.29-.21-.44-.31-.27-.15-.41-.22l-.46-.2a3.68,3.68,0,0,0-.47-.15l-.46-.1a4.75,4.75,0,0,0-.53,0l-.28,0-.17,0a3.07,3.07,0,0,0-.53.05l-.45.07-.48.15a3.34,3.34,0,0,0-.44.17,6.58,6.58,0,0,0-.84.49,4.57,4.57,0,0,0-.36.29c-.13.12-.26.23-.38.36a1.42,1.42,0,0,1-.13.12c-.06.07-.1.16-.16.23a4.91,4.91,0,0,0-.31.44c-.08.13-.15.27-.22.41s-.14.3-.2.45-.1.32-.15.48-.07.3-.1.46a4.53,4.53,0,0,0-.05.53,2.4,2.4,0,0,0,0,.28v47.53l-30.74,31.6h-35a5,5,0,0,0,0,10Zm75.73-78.17,13.86,12-13.86,14.25Zm-10,50.91v17.26H213.09Z" />
                  <path d="M169.86,261.26a5,5,0,0,0-5,5v77.85c0,.12,0,.23,0,.34s0,.37.06.55a5.36,5.36,0,0,0,.14.54,3,3,0,0,0,.09.32,1,1,0,0,0,0,.1,2.59,2.59,0,0,0,.14.29c.09.18.18.35.28.52l.17.25a5,5,0,0,0,.4.49l.17.18a5.1,5.1,0,0,0,.67.56l.1.05a4.22,4.22,0,0,0,.66.36l.28.11a3.32,3.32,0,0,0,.59.18l.28.07a5.49,5.49,0,0,0,.9.09,4.29,4.29,0,0,0,.94-.1,3.49,3.49,0,0,0,.38-.1l.44-.12L216.33,332,259,348c.14,0,.29.07.43.11l.38.11a5,5,0,0,0,.94.09,4.6,4.6,0,0,0,.91-.09l.27-.06a5.76,5.76,0,0,0,.59-.18l.28-.11a7,7,0,0,0,.66-.36l.1-.06a5,5,0,0,0,.67-.55l.17-.19a4.63,4.63,0,0,0,.4-.48c.06-.09.12-.17.17-.26a3.15,3.15,0,0,0,.28-.51,2.75,2.75,0,0,0,.14-.3.41.41,0,0,1,0-.09c0-.11.05-.22.08-.33a3.85,3.85,0,0,0,.2-1.08c0-.12,0-.23,0-.35V313.49l28.38-10.64a5,5,0,1,0-3.51-9.36l-74.31,27.86L174.86,305.8V266.26A5,5,0,0,0,169.86,261.26Zm85.91,56v18.9l-25.2-9.45Zm-53.69,9.45L174.86,336.9V316.48Z" />
                  <path d="M301.6,468.2l-26.22-15.5V412l26.22-15.5a5,5,0,0,0-5.09-8.61l-65.38,38.65-65.39-38.65a5,5,0,0,0-5.08,8.61L186.88,412v40.7l-26.22,15.5a5,5,0,0,0,5.08,8.61l65.39-38.65,65.38,38.65a5,5,0,1,0,5.09-8.61ZM196.88,446.79V417.91l24.42,14.44Zm68.5-28.88v8.84h-6a5,5,0,0,0,0,10h6v10L241,432.35Z" />
                  <path d="M11.66,389.66a5,5,0,0,0-5,5V472.5c0,.12,0,.23,0,.35a4.93,4.93,0,0,0,0,.54c0,.19.09.36.14.54s.05.22.09.33a.93.93,0,0,0,0,.1c0,.1.09.19.13.29s.18.35.28.51l.17.26a6.26,6.26,0,0,0,.41.49l.16.18a5.11,5.11,0,0,0,.68.55l.09.06a7.12,7.12,0,0,0,.67.36l.28.11a5.58,5.58,0,0,0,.58.18l.28.06a4.58,4.58,0,0,0,.9.09,5.09,5.09,0,0,0,.95-.09l.38-.11c.14,0,.29-.06.43-.11l44.71-16.77,42.69,16c.14.05.29.08.43.12s.25.08.38.1a5.11,5.11,0,0,0,1,.1,5.49,5.49,0,0,0,.9-.09l.28-.07a5.58,5.58,0,0,0,.58-.18l.28-.11a4.83,4.83,0,0,0,.67-.36.47.47,0,0,0,.09-.06,5,5,0,0,0,.67-.55l.17-.18a3.72,3.72,0,0,0,.4-.49l.18-.25c.1-.17.19-.34.28-.52s.09-.19.13-.29l.05-.1c0-.11,0-.22.08-.32a5.44,5.44,0,0,0,.15-.54,5.35,5.35,0,0,0,.05-.55c0-.11,0-.22,0-.34V441.88L136,431.24a5,5,0,1,0-3.51-9.36L58.13,449.74,16.66,434.2V394.66A5,5,0,0,0,11.66,389.66Zm85.92,56v18.9l-25.21-9.45Zm-53.69,9.45L16.66,465.29V444.88Z" />
                  <path d="M1,344.11a5,5,0,0,0,5,5H76.68a5,5,0,0,0,5-5V311.57l21.43-22,33.52,29.12a5,5,0,0,0,6.56-7.56L80,256.2c-.07-.06-.15-.1-.23-.16a4.25,4.25,0,0,0-.43-.31l-.42-.23a4.32,4.32,0,0,0-.45-.19,4.42,4.42,0,0,0-.48-.15,3.63,3.63,0,0,0-.45-.1A5,5,0,0,0,77,255l-.28,0h-.17a4.6,4.6,0,0,0-.52.06l-.46.07a4.26,4.26,0,0,0-.47.15,4.13,4.13,0,0,0-.45.17,4.23,4.23,0,0,0-.42.22l-.42.26c-.12.09-.23.19-.35.3a3.33,3.33,0,0,0-.39.36.68.68,0,0,0-.12.12,2,2,0,0,0-.17.23,4.15,4.15,0,0,0-.3.43,4.36,4.36,0,0,0-.23.42c-.07.15-.14.29-.2.45a4.19,4.19,0,0,0-.14.47c0,.16-.08.31-.11.46s0,.36-.05.54,0,.18,0,.28v47.53l-30.74,31.6H6A5,5,0,0,0,1,344.11Zm80.73-73.17,13.86,12L81.68,297.23Zm-10,50.91v17.26H54.89Z" />
                  <path d="M143.4,531.2a5,5,0,0,0-5.08-8.61L72.93,561.25,7.54,522.59a5,5,0,0,0-5.08,8.61l26.22,15.5v40.7L2.46,602.9A5,5,0,0,0,5,612.21a4.86,4.86,0,0,0,2.53-.7l65.39-38.65,65.39,38.65a4.86,4.86,0,0,0,2.53.7,5,5,0,0,0,2.55-9.31l-26.22-15.5V546.7ZM38.68,581.49V552.61L63.1,567.05Zm68.5-20h-6a5,5,0,0,0,0,10h6v10L82.76,567.05l24.42-14.43Z" />
                  <path d="M194,556.4a5,5,0,0,0-5,5v33.82l-9.83,8.14a5,5,0,1,0,6.38,7.7l10.14-8.39h84.25a5,5,0,0,0,0-10H207.75l31.74-26.27h40.43a5,5,0,0,0,5-5V526.45a1.6,1.6,0,0,0,0-.23,3.07,3.07,0,0,0-.05-.53,3.4,3.4,0,0,0-.09-.46c0-.16-.09-.31-.14-.47s-.12-.31-.19-.46l-.22-.41c-.1-.15-.19-.3-.3-.44s-.08-.13-.13-.19l-.16-.16-.37-.37c-.12-.1-.24-.21-.37-.3a2.85,2.85,0,0,0-.41-.26,3.5,3.5,0,0,0-.42-.24,4.7,4.7,0,0,0-.45-.17,4.11,4.11,0,0,0-.46-.15l-.46-.09-.53,0-.22,0H194a5,5,0,0,0,0,10h72L235.89,556.4Zm5,30.54V566.4h24.83Zm75.94-49.87V556.4H251.57Z" />
                  <path d="M35.78,686a5,5,0,0,0-5,5v33.82L21,732.92a5,5,0,1,0,6.38,7.7l10.14-8.39h84.25a5,5,0,1,0,0-10H49.55L81.29,696h40.43a5,5,0,0,0,5-5V656c0-.08,0-.16,0-.23a4.52,4.52,0,0,0-.06-.53,3.4,3.4,0,0,0-.09-.46c0-.16-.09-.32-.14-.47s-.12-.31-.19-.46l-.22-.41a4.27,4.27,0,0,0-.3-.44c0-.06-.08-.13-.13-.19l-.16-.16-.37-.37c-.12-.1-.24-.21-.37-.3a3.42,3.42,0,0,0-.4-.26,3.62,3.62,0,0,0-.43-.24l-.44-.18-.47-.14a3.73,3.73,0,0,0-.46-.09A4.8,4.8,0,0,0,122,651l-.23,0H35.78a5,5,0,1,0,0,10h72.06L77.69,686Zm5,30.54V696H65.61Zm75.94-49.87V686H93.37Z" />
                  <path d="M238.16,648.86c-.07-.06-.16-.1-.23-.16a4.37,4.37,0,0,0-.44-.31l-.41-.23-.46-.2-.47-.14a3.41,3.41,0,0,0-.46-.1,4.78,4.78,0,0,0-.53-.06c-.1,0-.19,0-.28,0l-.17,0a4.52,4.52,0,0,0-.53.06l-.45.07-.48.15-.44.16a3.62,3.62,0,0,0-.43.24c-.14.08-.28.16-.41.25s-.24.19-.36.3a4.27,4.27,0,0,0-.38.36,1.42,1.42,0,0,0-.13.12c-.06.07-.1.15-.16.23s-.21.28-.31.43-.15.28-.22.42a4.68,4.68,0,0,0-.2.45c-.06.16-.1.31-.15.47s-.07.31-.1.46a5,5,0,0,0-.05.53c0,.1,0,.19,0,.28v47.54l-30.74,31.6h-35a5,5,0,1,0,0,10h70.73a5,5,0,0,0,5-5V704.23l21.42-22,33.53,29.11a5,5,0,0,0,7.05-.49,5,5,0,0,0-.49-7.06Zm-8.28,82.91H213.09l16.79-17.26Zm10-41.88V663.6l13.86,12Z" />
                  <path d="M290.64,814.93l-74.31,27.86-41.47-15.54V787.71a5,5,0,0,0-10,0v77.85c0,.11,0,.22,0,.34s0,.36.06.55a4.58,4.58,0,0,0,.14.53c0,.11,0,.22.09.33a1,1,0,0,1,0,.1c0,.1.09.19.14.29s.18.35.28.52l.17.25c.13.17.26.33.4.49l.17.18a5,5,0,0,0,.67.55l.1.06a7,7,0,0,0,.66.36l.28.11c.2.07.39.13.59.18a2.3,2.3,0,0,0,.28.06,4.59,4.59,0,0,0,.9.1,5,5,0,0,0,.94-.1,3.49,3.49,0,0,0,.38-.1l.44-.12,44.71-16.77,42.69,16c.14,0,.29.08.43.12a2.66,2.66,0,0,0,.38.1,4.29,4.29,0,0,0,.94.1,5.5,5.5,0,0,0,.91-.09l.27-.07a3.09,3.09,0,0,0,.59-.18l.28-.11a4.22,4.22,0,0,0,.66-.36l.1,0a5.1,5.1,0,0,0,.67-.56c.06,0,.11-.12.17-.18a3.88,3.88,0,0,0,.4-.49,2.2,2.2,0,0,0,.17-.25,3.74,3.74,0,0,0,.28-.52,2.59,2.59,0,0,0,.14-.29l0-.1a3,3,0,0,0,.08-.32,3.58,3.58,0,0,0,.14-.54,3.31,3.31,0,0,0,.06-.55c0-.11,0-.22,0-.34V834.93l28.38-10.64a5,5,0,1,0-3.51-9.36ZM174.86,858.34V837.93l27.22,10.2Zm80.91-.75-25.2-9.46,25.2-9.45Z" />
                  <path d="M80,777.65a2,2,0,0,0-.23-.17,4.15,4.15,0,0,0-.43-.3,4.36,4.36,0,0,0-.42-.23l-.45-.2L78,776.6l-.45-.1a4.93,4.93,0,0,0-.54,0,2.4,2.4,0,0,0-.28,0l-.17,0a4.57,4.57,0,0,0-.52,0,3.4,3.4,0,0,0-.46.08l-.47.14-.45.17-.42.23a4.78,4.78,0,0,0-.42.26l-.35.29A4.59,4.59,0,0,0,73,778a1.31,1.31,0,0,0-.12.11c-.07.08-.11.16-.17.23s-.21.29-.3.44a4.23,4.23,0,0,0-.23.41c-.07.15-.14.3-.2.46a3.64,3.64,0,0,0-.14.47c0,.15-.08.3-.11.46s0,.35-.05.53,0,.19,0,.28V829L40.94,860.56H6a5,5,0,0,0,0,10H76.68a5,5,0,0,0,5-5V833l21.43-22,33.52,29.11a5,5,0,1,0,6.56-7.55Zm-8.28,82.91H54.89L71.68,843.3Zm10-41.89V792.39l13.86,12Z" />
                </svg>