<svg xmlns="http://www.w3.org/2000/svg" width="360" height="360" viewBox="0 0 360 360"><path d="M180,256.17c79.83,0,125.24-50.66,125.24-50.66l-43.64-75L180,185.73l-81.6-55.2-43.64,75S100.17,256.17,180,256.17Z" fill="#fda7df"/><path d="M180,262.17c-81.58,0-127.78-50.5-129.71-52.65a6,6,0,0,1-.72-7l43.64-75a6,6,0,0,1,8.55-2L180,178.48l78.24-52.92a6,6,0,0,1,8.55,2l43.64,75a6,6,0,0,1-.72,7C307.78,211.67,261.57,262.17,180,262.17ZM62.26,204.54c11.21,10.65,53,45.63,117.74,45.63s106.52-35,117.74-45.63L259.65,139.1l-76.29,51.6a6,6,0,0,1-6.72,0l-76.29-51.6Z"/><circle cx="226.65" cy="200.25" r="13.08" fill="#fff"/><path d="M226.65,219.33a19.08,19.08,0,1,1,19.08-19.08A19.1,19.1,0,0,1,226.65,219.33Zm0-26.16a7.08,7.08,0,1,0,7.08,7.08A7.09,7.09,0,0,0,226.65,193.17Z"/><circle cx="133.35" cy="200.25" r="13.08" fill="#fff"/><path d="M133.35,219.33a19.08,19.08,0,1,1,19.08-19.08A19.1,19.1,0,0,1,133.35,219.33Zm0-26.16a7.08,7.08,0,1,0,7.08,7.08A7.09,7.09,0,0,0,133.35,193.17Z"/><path d="M180,191.73a6,6,0,0,1-5.64-3.95l-13.61-37.26A6,6,0,1,1,172,146.4l13.61,37.27a6,6,0,0,1-5.63,8.06Z"/><path d="M180,191.73a6,6,0,0,1-5.64-8.06L188,146.4a6,6,0,1,1,11.27,4.12l-13.62,37.26A6,6,0,0,1,180,191.73Z"/><rect x="167.54" y="196.61" width="26.19" height="36.67" rx="10.91" fill="#9980fa"/><path d="M180.64,239.29a19.12,19.12,0,0,1-19.1-19.1V209.71a19.1,19.1,0,1,1,38.19,0v10.48A19.12,19.12,0,0,1,180.64,239.29Zm0-36.68a7.11,7.11,0,0,0-7.1,7.1v10.48a7.1,7.1,0,1,0,14.19,0V209.71A7.11,7.11,0,0,0,180.64,202.61Z"/><ellipse cx="181.21" cy="258.58" rx="17.69" ry="11.88" fill="#ea2027"/><path d="M181.21,276.46c-13.29,0-23.69-7.86-23.69-17.88s10.4-17.88,23.69-17.88,23.69,7.85,23.69,17.88S194.49,276.46,181.21,276.46Zm0-23.76c-7.14,0-11.69,3.48-11.69,5.88s4.55,5.88,11.69,5.88,11.69-3.48,11.69-5.88S188.34,252.7,181.21,252.7Z"/><path d="M98.4,185.84a6,6,0,0,1-6-6V130.53a6,6,0,0,1,12,0v49.31A6,6,0,0,1,98.4,185.84Z"/><path d="M79,206.51a6,6,0,0,1-6-6v-36a6,6,0,0,1,12,0v36A6,6,0,0,1,79,206.51Z"/><path d="M262.72,185.84a6,6,0,0,1-6-6V130.53a6,6,0,1,1,12,0v49.31A6,6,0,0,1,262.72,185.84Z"/><line x1="282.1" y1="200.51" x2="282.1" y2="164.53" fill="#fff"/><path d="M282.1,206.51a6,6,0,0,1-6-6v-36a6,6,0,1,1,12,0v36A6,6,0,0,1,282.1,206.51Z"/></svg>