<svg xmlns="http://www.w3.org/2000/svg" width="360" height="360" viewBox="0 0 360 360"><circle cx="181.29" cy="80.4" r="18.43" fill="#ea2027"/><path d="M181.29,104.83A24.43,24.43,0,1,1,205.72,80.4,24.46,24.46,0,0,1,181.29,104.83Zm0-36.86A12.43,12.43,0,1,0,193.72,80.4,12.44,12.44,0,0,0,181.29,68Z"/><polyline points="120.93 102.03 90.48 115.76 136.12 188.89" fill="#fda7df"/><path d="M131,192.07,85.39,118.94A6,6,0,0,1,88,110.29l30.44-13.73,4.93,10.94L99.21,118.41l42,67.31Z"/><polyline points="239.07 102.03 269.51 115.76 223.88 188.89" fill="#fda7df"/><path d="M229,192.07l-10.19-6.35,42-67.31L236.61,107.5l4.93-10.94L272,110.29a6,6,0,0,1,2.63,8.65Z"/><path d="M245.62,80.31A6,6,0,0,1,247,85.16L225.45,217.47c0,.14-.06.26-.1.39s0,.19-.06.29a6.24,6.24,0,0,1-.35.94L186,300.62a6,6,0,0,1-10.84,0l-38.89-81.53a5.91,5.91,0,0,1-.52-1.62L114.27,85.16a6,6,0,0,1,5.92-7H241.05A6,6,0,0,1,245.62,80.31ZM214.18,212,234,90.2H127.25l20.26,124.5,8.43,17.69ZM205,233l2.87-6-16.8,5.88ZM192.51,259.2l2.84-6-9.5,6Zm-11.88,24.9,6.15-12.9H174.46Zm-13.16-27.55,18.8-11.79-24.53-.24Z"/><polygon points="233.99 90.2 214.18 212.03 155.94 232.39 147.51 214.7 127.25 90.2 233.99 90.2" fill="#c4e538"/><polygon points="207.9 226.93 205.03 232.96 191.1 232.81 207.9 226.93" fill="#ffc312"/><polygon points="195.35 253.24 192.51 259.2 185.85 259.2 195.35 253.24" fill="#ffc312"/><polygon points="186.78 271.2 180.63 284.1 174.46 271.2 186.78 271.2" fill="#ffc312"/><polygon points="186.27 244.76 167.47 256.55 161.74 244.52 186.27 244.76" fill="#ffc312"/><circle cx="204.25" cy="120.15" r="13.08" fill="#fff"/><path d="M204.25,139.23a19.08,19.08,0,1,1,19.08-19.08A19.1,19.1,0,0,1,204.25,139.23Zm0-26.15a7.08,7.08,0,1,0,7.08,7.07A7.08,7.08,0,0,0,204.25,113.08Z"/><circle cx="155.57" cy="120.15" r="13.08" fill="#fff"/><path d="M155.57,139.23a19.08,19.08,0,1,1,19.08-19.08A19.1,19.1,0,0,1,155.57,139.23Zm0-26.15a7.08,7.08,0,1,0,7.08,7.07A7.08,7.08,0,0,0,155.57,113.08Z"/><polygon points="180 144.63 192.65 144.63 186.32 157.15 180 169.67 173.68 157.15 167.35 144.63 180 144.63" fill="#ffc312"/><path d="M180,175.67a6,6,0,0,1-5.36-3.29l-12.64-25a6,6,0,0,1,5.36-8.7h25.29a6,6,0,0,1,5.35,8.7l-12.64,25A6,6,0,0,1,180,175.67Zm-2.89-25,2.89,5.73,2.89-5.73Z"/><rect x="167.85" y="187.88" width="25.55" height="16.75" rx="6.98" transform="translate(376.88 15.64) rotate(90)" fill="#ea2027"/><path d="M180.62,215a14.4,14.4,0,0,1-14.38-14.38v-8.79a14.38,14.38,0,1,1,28.76,0v8.79A14.4,14.4,0,0,1,180.62,215Zm0-25.55a2.41,2.41,0,0,0-2.38,2.38v8.79a2.38,2.38,0,0,0,4.76,0v-8.79A2.41,2.41,0,0,0,180.62,189.48Z"/></svg>