<svg xmlns="http://www.w3.org/2000/svg" width="308.59" height="251.92" viewBox="0 0 308.59 251.92"><line x1="13.59" y1="26.69" x2="13.59" y2="94.53" fill="none" stroke="#000" stroke-linecap="round" stroke-miterlimit="10" stroke-width="10"/><polygon points="182.63 192.44 181.81 224.86 225.13 210.15 273.62 225.4 273.62 190.8 228.67 205.79 182.63 192.44" fill="#2ed573"/><polygon points="81.42 152.93 104.44 175.96 81.01 204.83 79.51 237.94 48.45 237.94 75.97 206.33 81.42 152.93" fill="coral"/><polygon points="193.07 51.86 193.07 82.92 238.84 51.31 281.52 51.13 280.25 18.08 238.84 48.05 193.07 51.86" fill="#eccc68"/><polygon points="38.87 40.05 38.87 79.83 76.29 61.85 116.06 85.46 117.15 35.88 74.11 57.31 38.87 40.05" fill="#ff6b81"/><polyline points="15.91 207.7 79.83 150.47 142.37 207.7" fill="none" stroke="#000" stroke-linecap="round" stroke-linejoin="round" stroke-width="10"/><polyline points="150.48 238.87 79.44 238.87 8.41 238.87" fill="none" stroke="#000" stroke-linecap="round" stroke-linejoin="round" stroke-width="10"/><line x1="79.14" y1="152.79" x2="79.14" y2="236.93" fill="none" stroke="#000" stroke-linecap="round" stroke-linejoin="round" stroke-width="10"/><line x1="5" y1="19.43" x2="144.04" y2="101.62" fill="none" stroke="#000" stroke-linecap="round" stroke-miterlimit="10" stroke-width="10"/><line x1="144.04" y1="19.43" x2="5" y2="101.62" fill="none" stroke="#000" stroke-linecap="round" stroke-miterlimit="10" stroke-width="10"/><line x1="37.66" y1="40.47" x2="37.66" y2="80.75" fill="none" stroke="#000" stroke-linecap="round" stroke-miterlimit="10" stroke-width="10"/><line x1="116.95" y1="107.86" x2="116.95" y2="13.35" fill="none" stroke="#000" stroke-linecap="round" stroke-miterlimit="10" stroke-width="10"/><line x1="138.5" y1="116.22" x2="138.5" y2="5" fill="none" stroke="#000" stroke-linecap="round" stroke-miterlimit="10" stroke-width="10"/><line x1="103.81" y1="59.92" x2="114.61" y2="59.92" fill="none" stroke="#000" stroke-linecap="round" stroke-miterlimit="10" stroke-width="10"/><line x1="179.77" y1="226.29" x2="302.3" y2="180.34" fill="none" stroke="#000" stroke-linecap="round" stroke-linejoin="round" stroke-width="10"/><line x1="270.68" y1="225.53" x2="179.77" y2="191.44" fill="none" stroke="#000" stroke-linecap="round" stroke-linejoin="round" stroke-width="10"/><line x1="179.77" y1="226.29" x2="179.77" y2="148.44" fill="none" stroke="#000" stroke-linecap="round" stroke-linejoin="round" stroke-width="10"/><line x1="273.29" y1="148.44" x2="273.29" y2="246.92" fill="none" stroke="#000" stroke-linecap="round" stroke-linejoin="round" stroke-width="10"/><polyline points="194.33 15.74 280.27 15.74 280.27 50.69 194.33 50.69 194.33 86.96 280.27 86.96" fill="none" stroke="#000" stroke-linecap="round" stroke-linejoin="round" stroke-width="10"/><polyline points="280.27 15.74 167.65 108.95 303.59 108.95" fill="none" stroke="#000" stroke-linecap="round" stroke-linejoin="round" stroke-width="10"/><line x1="106.17" y1="174.57" x2="43.63" y2="238.86" fill="none" stroke="#000" stroke-linecap="round" stroke-linejoin="round" stroke-width="10"/></svg>