<svg xmlns="http://www.w3.org/2000/svg" width="630" height="230" viewBox="0 0 630 230"><path d="M511.76,42.06a5,5,0,0,0-5,5V80.88L496.92,89a5,5,0,1,0,6.38,7.7l10.14-8.39h84.25a5,5,0,0,0,0-10H525.52l31.74-26.27h40.43a5,5,0,0,0,5-5V12.11c0-.08,0-.16,0-.23a4.52,4.52,0,0,0-.06-.53,3.4,3.4,0,0,0-.09-.46c0-.16-.09-.31-.14-.47s-.12-.31-.19-.46L602,9.55a4.27,4.27,0,0,0-.3-.44c0-.06-.08-.13-.13-.19s-.11-.1-.16-.16L601,8.39c-.12-.1-.24-.21-.37-.3s-.26-.18-.4-.26a3.62,3.62,0,0,0-.43-.24l-.44-.17a4.26,4.26,0,0,0-.47-.15c-.15,0-.31-.06-.46-.09l-.53,0-.22,0H511.76a5,5,0,0,0,0,10h72l-30.15,25Zm5,30.54V52.06h24.82Zm75.93-49.87V42.06H569.34Z"/><path d="M464.78,16.86a5,5,0,0,0-5.09-8.61L394.31,46.91,328.92,8.25a5,5,0,1,0-5.09,8.61l26.23,15.5v40.7L323.83,88.57a5,5,0,0,0,2.55,9.3,4.9,4.9,0,0,0,2.54-.7l65.39-38.65,65.38,38.65a4.92,4.92,0,0,0,2.54.7,5,5,0,0,0,2.55-9.3L438.56,73.06V32.36ZM360.06,67.15V38.27l24.42,14.44Zm68.5-20h-6a5,5,0,0,0,0,10h6v10L404.13,52.71l24.43-14.44Z"/><path d="M178,10a5,5,0,0,0-5,5V92.87c0,.12,0,.23,0,.34s0,.37.06.55a5.36,5.36,0,0,0,.14.54,3,3,0,0,0,.09.32,1,1,0,0,0,0,.1,2.59,2.59,0,0,0,.14.29,5.21,5.21,0,0,0,.28.52,2.2,2.2,0,0,0,.17.25,3.88,3.88,0,0,0,.4.49l.17.18a5.1,5.1,0,0,0,.67.56l.1,0a4.22,4.22,0,0,0,.66.36l.28.11a4.43,4.43,0,0,0,.59.18l.28.07a5.28,5.28,0,0,0,.9.09,5,5,0,0,0,.94-.1c.13,0,.26-.07.38-.1s.29-.07.43-.12l44.71-16.76,42.7,16a3.45,3.45,0,0,0,.43.12L268,97a5,5,0,0,0,.94.09,4.43,4.43,0,0,0,.9-.09,2.3,2.3,0,0,0,.28-.06,5.76,5.76,0,0,0,.59-.18l.28-.11a7,7,0,0,0,.66-.36l.1-.06a5,5,0,0,0,.67-.55l.17-.19A4.63,4.63,0,0,0,273,95c.06-.09.12-.17.17-.26a3.15,3.15,0,0,0,.28-.51,2.75,2.75,0,0,0,.14-.3l0-.09a2,2,0,0,0,.09-.33,4.75,4.75,0,0,0,.14-.54,3.31,3.31,0,0,0,.06-.54c0-.12,0-.23,0-.35V62.25l28.38-10.64a5,5,0,1,0-3.51-9.36L224.49,70.11,183,54.56V15A5,5,0,0,0,178,10Zm85.91,56V84.9l-25.2-9.45Zm-53.69,9.45L183,85.65V65.24Z"/><path d="M448,139.74a3.73,3.73,0,0,0-.09-.46,4.26,4.26,0,0,0-.15-.47,3,3,0,0,0-.19-.46,4,4,0,0,0-.22-.4c-.09-.16-.19-.3-.29-.45s-.08-.13-.13-.19-.11-.1-.16-.15a2.65,2.65,0,0,0-.38-.37,2.6,2.6,0,0,0-.36-.3,3.62,3.62,0,0,0-.41-.27l-.42-.23a4.22,4.22,0,0,0-.45-.18,3.68,3.68,0,0,0-.47-.15l-.46-.08a4.35,4.35,0,0,0-.52-.06l-.22,0H357.16a5,5,0,0,0,0,10h72l-30.14,24.95H357.16a5,5,0,0,0-5,5v33.82l-9.83,8.14a5,5,0,0,0,6.38,7.71l10.14-8.4H443.1a5,5,0,0,0,0-10H370.93l31.74-26.27H443.1a5,5,0,0,0,5-5V140.5a1.81,1.81,0,0,0,0-.23A3.17,3.17,0,0,0,448,139.74ZM362.16,201V180.45H387Zm52.59-30.55,23.35-19.32v19.32Z"/><path d="M309.77,145.26a5,5,0,0,0-5.09-8.61L239.3,175.3l-65.39-38.65a5,5,0,1,0-5.09,8.61l26.23,15.5v40.7L168.82,217a5,5,0,0,0,5.09,8.61l65.39-38.65,65.38,38.65a5,5,0,0,0,5.09-8.61l-26.22-15.5v-40.7ZM205.05,195.55V166.67l24.42,14.44Zm68.5-20h-6a5,5,0,0,0,0,10h6v10l-24.43-14.44,24.43-14.44Z"/><path d="M140.61,170.64,66.3,198.5,24.83,183V143.42a5,5,0,0,0-10,0v77.84c0,.12,0,.23,0,.35a4.93,4.93,0,0,0,.05.54,4.75,4.75,0,0,0,.14.54c0,.11,0,.22.09.33l0,.09a2.75,2.75,0,0,0,.14.3c.09.18.18.35.28.51l.17.26c.13.17.26.33.4.48l.17.19a5,5,0,0,0,.67.55l.1.06a7,7,0,0,0,.66.36l.29.11a5.58,5.58,0,0,0,.58.18,2.3,2.3,0,0,0,.28.06,4.58,4.58,0,0,0,.9.09,5.17,5.17,0,0,0,1-.09l.37-.11c.15,0,.29-.06.44-.11L66.3,209.18l42.69,16c.14.05.29.08.43.12s.25.08.38.1a5.09,5.09,0,0,0,.94.1,5.5,5.5,0,0,0,.91-.09l.28-.07c.19,0,.39-.11.58-.18l.28-.11a4.83,4.83,0,0,0,.67-.36l.09-.06a5,5,0,0,0,.67-.55l.17-.18a4.74,4.74,0,0,0,.4-.49l.18-.25c.1-.17.19-.34.28-.52s.09-.19.13-.29l.05-.1c0-.11,0-.22.08-.32a5.44,5.44,0,0,0,.15-.54,5.35,5.35,0,0,0,0-.55c0-.11,0-.22,0-.34V190.64L144.12,180a5,5,0,1,0-3.51-9.36ZM24.83,214.05V193.64l27.22,10.2Zm80.92-.76-25.21-9.45,25.21-9.45Z"/><path d="M88.13,5c-.07-.06-.16-.1-.23-.16a4.37,4.37,0,0,0-.44-.31,3.23,3.23,0,0,0-.41-.22,3,3,0,0,0-.45-.2,4.42,4.42,0,0,0-.48-.15,3.41,3.41,0,0,0-.46-.1,4.52,4.52,0,0,0-.53-.06l-.28,0h-.17a4.78,4.78,0,0,0-.53.06l-.45.07a4.42,4.42,0,0,0-.48.15l-.44.16a4.49,4.49,0,0,0-.42.24c-.14.08-.29.16-.42.25a3.27,3.27,0,0,0-.35.3,3.33,3.33,0,0,0-.39.36.68.68,0,0,0-.12.12,2,2,0,0,0-.17.23c-.11.14-.21.28-.31.43s-.15.28-.22.42-.14.29-.2.45-.1.31-.15.47-.07.31-.1.46a4.93,4.93,0,0,0-.05.54,2.4,2.4,0,0,0,0,.28V56.27L49.11,87.87h-35a5,5,0,0,0,0,10H84.85a5,5,0,0,0,5-5V60.33l21.42-22L144.8,67.42a5,5,0,0,0,6.56-7.56ZM79.85,87.87H63.06L79.85,70.61ZM89.85,46V19.7l13.86,12Z"/><path d="M555.93,133.35c-.07-.06-.15-.1-.23-.16a4.91,4.91,0,0,0-.44-.31c-.13-.08-.27-.15-.41-.22l-.45-.2a4.42,4.42,0,0,0-.48-.15l-.45-.1a4.93,4.93,0,0,0-.54-.05,2.4,2.4,0,0,0-.28,0l-.16,0a4.93,4.93,0,0,0-.54,0,3.54,3.54,0,0,0-.45.08,4.34,4.34,0,0,0-.48.14c-.14.06-.29.1-.44.17l-.42.23a4.78,4.78,0,0,0-.42.26l-.35.29a4.59,4.59,0,0,0-.39.37,1.31,1.31,0,0,0-.12.11c-.07.07-.11.16-.17.23a4.27,4.27,0,0,0-.3.44,3.3,3.3,0,0,0-.23.41c-.07.15-.14.3-.2.46a3.64,3.64,0,0,0-.14.47c0,.15-.08.3-.11.46s0,.35-.05.53,0,.18,0,.28v47.53l-30.74,31.6h-35a5,5,0,0,0,0,10h70.73a5,5,0,0,0,5-5V188.72l21.43-22,33.52,29.11a5,5,0,1,0,6.56-7.55Zm-8.28,82.91H530.86L547.65,199Zm10-41.88V148.09l13.86,12Z"/></svg>