<svg
  xmlns="http://www.w3.org/2000/svg"
  width="360"
  height="360"
  viewBox="0 0 360 360"
>
  
  <circle cx="180" cy="180" r="180" fill="#6c6795" />

  <path
    d="M277.09,231.5a7.77,7.77,0,0,0-.08-.83,6,6,0,0,0-.17-.73,5.68,5.68,0,0,0-.22-.7,6.65,6.65,0,0,0-.34-.77c-.07-.13-.1-.27-.18-.39l-20.22-35,20.22-35c.08-.13.11-.26.18-.39a6.65,6.65,0,0,0,.34-.77,5.83,5.83,0,0,0,.22-.71,6.25,6.25,0,0,0,.17-.72,8,8,0,0,0,.08-.84c0-.14.05-.28.05-.43s0-.16,0-.25a7.77,7.77,0,0,0-.08-.83c0-.23-.07-.47-.12-.7s-.14-.47-.22-.71-.16-.47-.26-.7-.23-.43-.35-.65-.25-.43-.39-.63a19.36,19.36,0,0,0-1-1.13,5.75,5.75,0,0,0-.54-.44,6.51,6.51,0,0,0-.68-.49c-.07,0-.13-.11-.2-.15s-.27-.11-.4-.18a7.58,7.58,0,0,0-.76-.34c-.24-.09-.48-.16-.72-.23s-.47-.12-.7-.16a8.52,8.52,0,0,0-.87-.08c-.14,0-.27,0-.41,0H229L215.67,123.4h14.22a7.72,7.72,0,1,0,0-15.44H206.76l-20.23-35c-.07-.13-.17-.23-.25-.35a6.51,6.51,0,0,0-.49-.68,5.35,5.35,0,0,0-.51-.55c-.17-.17-.34-.34-.53-.5s-.46-.34-.7-.5-.22-.17-.34-.24a2.26,2.26,0,0,0-.22-.11c-.25-.13-.51-.24-.78-.35s-.43-.17-.65-.24-.49-.12-.74-.17-.48-.1-.73-.12-.49,0-.74,0-.49,0-.74,0-.48.08-.73.12-.49.1-.74.17-.43.16-.64.24a8,8,0,0,0-.79.36c-.07,0-.14,0-.22.1s-.21.16-.33.24a8.3,8.3,0,0,0-.71.5l-.52.49a6.89,6.89,0,0,0-.52.56c-.18.22-.33.44-.49.68s-.18.22-.25.35L153,108H112.51c-.14,0-.26,0-.39,0-.3,0-.6,0-.9.09s-.45.1-.68.16a5.25,5.25,0,0,0-.74.23,6.36,6.36,0,0,0-.75.34,3.52,3.52,0,0,0-.4.18l-.2.14c-.24.15-.46.32-.68.49s-.38.29-.55.45-.34.36-.51.55a6.61,6.61,0,0,0-.47.58c-.14.2-.26.41-.39.63s-.25.42-.35.64-.18.47-.26.71-.16.47-.22.71a5.38,5.38,0,0,0-.12.7,7.77,7.77,0,0,0-.08.83c0,.08,0,.16,0,.25s0,.28,0,.43a5.83,5.83,0,0,0,.08.83c0,.25.1.49.16.73s.14.47.22.71.22.51.35.77.1.26.18.39l20.22,35L112.7,177.67l-7.08-12.26a7.72,7.72,0,0,0-13.36,7.72l11.53,20-20.19,35c-.07.12-.11.26-.17.39a6.71,6.71,0,0,0-.35.77,5.68,5.68,0,0,0-.22.7c-.06.24-.12.48-.16.73a7.8,7.8,0,0,0-.09.83c0,.15,0,.29,0,.43V232c0,.08,0,.15,0,.23a1.47,1.47,0,0,0,0,.21c0,.22.06.43.09.64s.06.47.11.7.14.48.22.71.16.48.27.71.23.43.35.64a5.09,5.09,0,0,0,.39.63,6.61,6.61,0,0,0,.47.58c.17.19.33.38.51.55s.36.3.54.45.44.34.68.49c.07,0,.13.1.21.14a6,6,0,0,0,.72.36l.17.08a7.3,7.3,0,0,0,1.28.4l.29.06a8.09,8.09,0,0,0,1.39.14h40.44l20.23,35a7.31,7.31,0,0,0,.43.65l.12.18a8.51,8.51,0,0,0,.91,1l.23.2a7,7,0,0,0,1.09.78l0,0h0a6.16,6.16,0,0,0,.68.34l.25.12.3.1a7.6,7.6,0,0,0,2.6.47h0a7.8,7.8,0,0,0,2.51-.44l.39-.13.24-.12a7.33,7.33,0,0,0,.69-.34h0l0,0a7.39,7.39,0,0,0,1.08-.78l.24-.2a7.64,7.64,0,0,0,.9-1c.05-.06.08-.12.13-.19a7.14,7.14,0,0,0,.43-.64l20.28-35.13h26.57L204.05,252a7.71,7.71,0,1,0,13.36,7.71l11.57-20h40.45a8.07,8.07,0,0,0,1.38-.14l.3-.06a7.57,7.57,0,0,0,1.28-.4l.17-.08c.24-.11.48-.22.72-.35.07-.05.13-.11.2-.15.24-.15.46-.32.68-.49s.37-.29.54-.45a5.27,5.27,0,0,0,.51-.55c.17-.19.33-.37.48-.57s.26-.42.39-.64.24-.42.35-.64.18-.47.26-.71.16-.47.22-.71.08-.46.12-.7a7.53,7.53,0,0,0,.08-.83c0-.08,0-.16,0-.25S277.1,231.65,277.09,231.5Zm-21-69.61L247,177.62l-9.08-15.73Zm-76.2-69.66L188.93,108H170.77ZM135,139.13l-9.09-15.73H144Zm22.67,116.36-9.09-15.73h18.17Zm-53.92-31.27,9-15.63,9,15.63Zm90.9-17.36a7.72,7.72,0,0,0-10.54,2.83l-8.39,14.53H139.57l-18-31.11L135,170l4,6.92a7.72,7.72,0,1,0,13.37-7.71l-8.45-14.64,4.3-7.45,13.69-23.71h36l13.31,23.06h-8a7.72,7.72,0,1,0,0,15.43h16.9l18,31.16-18,31.17H193.5l3.94-6.82A7.72,7.72,0,0,0,194.61,206.86ZM247,208.49l9.08,15.73H237.89Z"
    fill="#fff"
  />
</svg>