<svg xmlns="http://www.w3.org/2000/svg" width="148" height="480" viewBox="0 0 148 480"><path d="M144.47,210.81l-26.22-15.5v-40.7l26.22-15.5a5,5,0,0,0-5.08-8.61L74,169.15,8.61,130.5a5,5,0,0,0-5.08,8.61l26.22,15.5v40.7L3.53,210.81a5,5,0,0,0,5.08,8.61L74,180.77l65.39,38.65a5,5,0,0,0,5.08-8.61ZM39.75,189.4V160.52L64.17,175Zm68.5-28.88v8.84h-6a5,5,0,0,0,0,10h6v10L83.83,175Z"/><path d="M7.82,86.44A4.75,4.75,0,0,0,8,87c0,.11,0,.22.09.33a.41.41,0,0,0,0,.09c0,.11.09.2.13.3s.18.35.28.51l.17.26a4.72,4.72,0,0,0,.41.48,1.46,1.46,0,0,0,.16.19,5,5,0,0,0,.67.55l.1.06a7,7,0,0,0,.66.36l.29.11a5.58,5.58,0,0,0,.58.18l.28.06a4.58,4.58,0,0,0,.9.09,5.09,5.09,0,0,0,.95-.09l.38-.11a4,4,0,0,0,.43-.12L59.2,73.47l42.69,16c.14,0,.29.08.43.12s.25.08.38.1a5.09,5.09,0,0,0,.94.1,5.5,5.5,0,0,0,.91-.09l.28-.07a5.58,5.58,0,0,0,.58-.18l.28-.11a4.83,4.83,0,0,0,.67-.36l.09-.06a5,5,0,0,0,.67-.55l.17-.18a3.72,3.72,0,0,0,.4-.49l.18-.25c.1-.17.19-.34.28-.52s.09-.19.13-.29l0-.1c0-.11,0-.22.08-.33a4.61,4.61,0,0,0,.15-.53,5.35,5.35,0,0,0,0-.55c0-.11,0-.22,0-.34V54.93L137,44.29a5,5,0,1,0-3.51-9.36L59.2,62.79,17.73,47.25V7.71a5,5,0,0,0-10,0V85.55c0,.12,0,.23,0,.35A4.93,4.93,0,0,0,7.82,86.44ZM98.65,58.68v18.9L73.44,68.13ZM45,68.13,17.73,78.34V57.92Z"/><path d="M36.85,293.09a5,5,0,0,0-5,5v33.82L22,340.05a5,5,0,1,0,6.38,7.7l10.14-8.39h84.25a5,5,0,1,0,0-10H50.62l31.74-26.27h40.43a5,5,0,0,0,5-5V263.14c0-.08,0-.16,0-.23a4.52,4.52,0,0,0-.06-.53,3.4,3.4,0,0,0-.09-.46c0-.16-.09-.31-.14-.47s-.12-.31-.19-.46l-.22-.41a4.27,4.27,0,0,0-.3-.44c0-.06-.08-.13-.13-.19l-.16-.16-.37-.37-.37-.3c-.13-.09-.26-.18-.4-.26a3.62,3.62,0,0,0-.43-.24l-.44-.17a4.26,4.26,0,0,0-.47-.15c-.15,0-.31-.06-.46-.09l-.53,0-.22,0H36.85a5,5,0,0,0,0,10h72.06L78.76,293.09Zm5,30.54V303.09H66.68Zm75.94-49.86v19.32H94.44Z"/><path d="M81,384.39c-.07-.07-.16-.11-.23-.17a4.91,4.91,0,0,0-.44-.31c-.13-.08-.27-.15-.41-.22l-.45-.2-.48-.15-.45-.1a4.93,4.93,0,0,0-.54-.05,2.66,2.66,0,0,0-.28,0l-.16,0a4.71,4.71,0,0,0-.54.05,3.54,3.54,0,0,0-.45.08,4.34,4.34,0,0,0-.48.14c-.15.06-.29.1-.44.17l-.42.23a3,3,0,0,0-.42.26l-.35.29a4.59,4.59,0,0,0-.39.37,1.31,1.31,0,0,0-.12.11c-.07.07-.11.16-.17.23s-.21.29-.31.44-.15.27-.22.41-.14.3-.2.46-.1.31-.15.47-.07.3-.1.46a4.53,4.53,0,0,0,0,.53,2.66,2.66,0,0,0,0,.28v47.53L42,467.29H7a5,5,0,1,0,0,10H77.75a5,5,0,0,0,5-5V439.75l21.43-22,33.52,29.11a5,5,0,1,0,6.56-7.55Zm-8.28,82.9H56L72.75,450Zm10-41.88V399.12l13.86,12Z"/></svg>