<svg xmlns="http://www.w3.org/2000/svg" width="627.66" height="494.88" viewBox="0 0 627.66 494.88"><g opacity="4%"><path d="M150.4,20.13a5,5,0,0,0-5.09-8.61L79.93,50.17,14.54,11.52a5,5,0,0,0-5.08,8.61l26.22,15.5v40.7L9.46,91.83a5,5,0,1,0,5.08,8.61L79.93,61.79l65.38,38.65a5,5,0,0,0,5.09-8.61l-26.22-15.5V35.63ZM45.68,70.42V41.54L70.1,56Zm68.5-20h-6a5,5,0,0,0,0,10h6v10L89.75,56l24.43-14.44Z" fill="#000000"/><path d="M618.2,221.39,592,205.89v-40.7l26.22-15.5a5,5,0,0,0-5.08-8.61l-65.39,38.65-65.38-38.65a5,5,0,1,0-5.09,8.61l26.22,15.5v40.7l-26.22,15.5a5,5,0,1,0,5.09,8.61l65.38-38.65L613.12,230a5,5,0,0,0,5.08-8.61ZM513.48,200V171.1l24.43,14.44ZM582,171.1v8.84h-6a5,5,0,0,0,0,10h6v10l-24.42-14.44Z" fill="#000000"/><path d="M481.55,97c0,.18.09.36.14.53s.05.22.09.33l.05.1c0,.1.09.19.13.29s.18.35.28.52l.17.25a6.26,6.26,0,0,0,.41.49l.16.18a5.11,5.11,0,0,0,.68.55l.09.06a7.12,7.12,0,0,0,.67.36l.28.11a5.58,5.58,0,0,0,.58.18l.28.06a4.59,4.59,0,0,0,.9.1,5.11,5.11,0,0,0,1-.1c.13,0,.25-.07.38-.1s.29-.07.43-.12l44.71-16.77,42.69,16c.14,0,.29.08.43.12a2.66,2.66,0,0,0,.38.1,4.38,4.38,0,0,0,1,.1,5.49,5.49,0,0,0,.9-.09l.28-.07a3,3,0,0,0,.58-.18l.28-.11a4.32,4.32,0,0,0,.67-.36l.09,0a5.19,5.19,0,0,0,.68-.56l.16-.18a3.94,3.94,0,0,0,.41-.49l.17-.25c.1-.16.19-.34.28-.52s.09-.19.13-.29a.31.31,0,0,0,0-.1c0-.1.05-.21.09-.32s.1-.36.14-.54a4.89,4.89,0,0,0,.05-.55c0-.11,0-.22,0-.34V65.51l28.37-10.63a5,5,0,1,0-3.51-9.37L532.93,73.37,491.46,57.83V18.29a5,5,0,0,0-10,0V96.14c0,.11,0,.22,0,.34A5.35,5.35,0,0,0,481.55,97Zm90.83-27.77V88.17l-25.21-9.46Zm-53.69,9.45L491.46,88.92V68.51Z" fill="#000000"/><path d="M189.34,101.14a5,5,0,0,0,3.19-1.15l10.14-8.4h84.25a5,5,0,0,0,0-10H214.75l31.74-26.27h40.43a5,5,0,0,0,5-5V15.37a1.81,1.81,0,0,0,0-.23,3.17,3.17,0,0,0-.05-.53,3.58,3.58,0,0,0-.09-.45,3.68,3.68,0,0,0-.15-.47,3.66,3.66,0,0,0-.18-.46l-.22-.41-.3-.44-.13-.2-.16-.15-.37-.37a3.47,3.47,0,0,0-.37-.3c-.13-.1-.27-.18-.41-.27s-.27-.16-.42-.23l-.45-.18-.46-.14a3.89,3.89,0,0,0-.47-.09,3,3,0,0,0-.52,0l-.22,0H201a5,5,0,1,0,0,10h72l-30.14,25H201a5,5,0,0,0-5,5V84.15l-9.83,8.13a5,5,0,0,0,3.19,8.86ZM281.92,26V45.32H258.57ZM206,55.32h24.83L206,75.87Z" fill="#000000"/><path d="M326.16,101.14h70.73a5,5,0,0,0,5-5V63.6l21.42-22,33.53,29.11a5,5,0,0,0,6.56-7.55L400.17,8.23a2.44,2.44,0,0,0-.23-.16,4.48,4.48,0,0,0-.44-.32l-.41-.22-.46-.2a4,4,0,0,0-.46-.14l-.47-.11a4.75,4.75,0,0,0-.53,0c-.09,0-.18,0-.28,0l-.17,0-.53.05a4,4,0,0,0-.46.08l-.46.14-.45.17c-.15.07-.28.15-.42.23A3.66,3.66,0,0,0,394,8l-.36.29c-.13.12-.26.24-.38.37l-.13.11c-.06.08-.1.16-.16.23l-.31.44-.22.41c-.07.15-.14.3-.2.46a3.68,3.68,0,0,0-.15.47c0,.15-.07.3-.1.46a4.75,4.75,0,0,0-.05.53c0,.1,0,.19,0,.28V59.53L361.15,91.14h-35a5,5,0,0,0,0,10ZM401.89,23l13.86,12L401.89,49.25Zm-10,50.91V91.14H375.1Z" fill="#000000"/><path d="M331.87,142.85a5,5,0,0,0-5,5V225.7c0,.11,0,.22,0,.34s0,.36.06.54a4.26,4.26,0,0,0,.14.54c0,.11,0,.22.09.33a1,1,0,0,1,0,.1c0,.1.09.19.14.29a4.16,4.16,0,0,0,.28.51,2.33,2.33,0,0,0,.17.26,6.12,6.12,0,0,0,.4.49l.17.18a5,5,0,0,0,.67.55l.1.06a7,7,0,0,0,.66.36l.28.11a5.76,5.76,0,0,0,.59.18,2.3,2.3,0,0,0,.28.06,4.43,4.43,0,0,0,.9.1,5,5,0,0,0,.94-.1c.13,0,.26-.07.38-.1s.29-.07.43-.12l44.71-16.77,42.7,16c.14,0,.29.08.43.12s.25.08.38.1a4.29,4.29,0,0,0,.94.1,5.28,5.28,0,0,0,.9-.09l.28-.07a3.09,3.09,0,0,0,.59-.18l.28-.11a4.22,4.22,0,0,0,.66-.36l.1,0a5.1,5.1,0,0,0,.67-.56l.17-.18a3.88,3.88,0,0,0,.4-.49,2.2,2.2,0,0,0,.17-.25,3.74,3.74,0,0,0,.28-.52,2.59,2.59,0,0,0,.14-.29,1,1,0,0,0,0-.1,1.68,1.68,0,0,0,.09-.32,5.36,5.36,0,0,0,.14-.54,3.31,3.31,0,0,0,.06-.55c0-.11,0-.22,0-.34V195.07l28.38-10.64a5,5,0,1,0-3.51-9.36l-74.32,27.86-41.46-15.54V147.85A5,5,0,0,0,331.87,142.85Zm85.91,56v18.91l-25.2-9.46Zm-53.69,9.45-27.22,10.21V198.07Z" fill="#000000"/><path d="M42.78,174.88a5,5,0,0,0-5,5v33.83L28,221.84a5,5,0,1,0,6.38,7.71l10.14-8.4h84.25a5,5,0,0,0,0-10H56.55l31.74-26.27h40.43a5,5,0,0,0,5-5V144.93c0-.08,0-.15,0-.23a4.78,4.78,0,0,0-.06-.53,4.14,4.14,0,0,0-.09-.46c0-.15-.09-.31-.14-.46s-.12-.31-.19-.46-.14-.28-.22-.41-.19-.3-.3-.44-.08-.14-.13-.2l-.16-.15a4.31,4.31,0,0,0-.37-.37,3.47,3.47,0,0,0-.37-.3,2.9,2.9,0,0,0-.41-.27,4.16,4.16,0,0,0-.42-.23,4.69,4.69,0,0,0-.45-.18l-.46-.14a3.55,3.55,0,0,0-.47-.09,2.94,2.94,0,0,0-.51,0,1.81,1.81,0,0,0-.23,0H42.78a5,5,0,0,0,0,10h72.06L84.69,174.88Zm5,30.55V184.88H72.61Zm75.94-49.87v19.32H100.37Z" fill="#000000"/><path d="M510.59,303.67a5,5,0,0,0-5,5v33.82l-9.84,8.14a5,5,0,0,0,3.19,8.85,4.93,4.93,0,0,0,3.19-1.15l10.14-8.39h84.25a5,5,0,0,0,0-10H524.35l31.74-26.27h40.43a5,5,0,0,0,5-5V273.72c0-.08,0-.15,0-.23a4.78,4.78,0,0,0-.06-.53,3.73,3.73,0,0,0-.09-.46c0-.16-.09-.31-.14-.47s-.12-.31-.19-.46-.14-.27-.22-.4a4.4,4.4,0,0,0-.3-.45c0-.06-.08-.13-.13-.19s-.11-.1-.16-.16a4.17,4.17,0,0,0-.37-.36l-.37-.31c-.13-.09-.26-.18-.4-.26s-.28-.16-.43-.23a3.38,3.38,0,0,0-.44-.18,4.26,4.26,0,0,0-.47-.15l-.46-.08a4.78,4.78,0,0,0-.53-.06l-.22,0H510.59a5,5,0,1,0,0,10h72.05l-30.15,24.95Zm5,30.55V313.67h24.82Zm75.93-49.87v19.32H568.17Z" fill="#000000"/><path d="M171.15,230.7h70.73a5,5,0,0,0,5-5V193.16l21.42-22,33.53,29.11a5,5,0,0,0,6.56-7.55l-63.23-54.9c-.08-.07-.16-.11-.23-.17a4.27,4.27,0,0,0-.44-.3,4.23,4.23,0,0,0-.41-.23l-.46-.2c-.15-.06-.31-.1-.47-.15l-.46-.1a4.75,4.75,0,0,0-.53,0l-.28,0-.17,0a4.53,4.53,0,0,0-.53,0,3.25,3.25,0,0,0-.45.08,4.42,4.42,0,0,0-.48.15l-.44.16c-.15.07-.29.15-.43.23a3.54,3.54,0,0,0-.41.26l-.36.29c-.13.12-.26.24-.38.37l-.13.11c-.06.08-.1.16-.16.23s-.21.29-.31.44l-.22.41c-.07.15-.14.3-.2.46a3.68,3.68,0,0,0-.15.47c0,.15-.07.3-.1.46a4.75,4.75,0,0,0-.05.53c0,.1,0,.19,0,.28v47.53L206.14,220.7h-35a5,5,0,0,0,0,10Zm75.73-78.17,13.86,12-13.86,14.25Zm-10,50.91V220.7H220.09Z" fill="#000000"/><path d="M463.61,278.47a5,5,0,1,0-5.09-8.6l-65.38,38.65-65.39-38.65a5,5,0,1,0-5.09,8.6L348.89,294v40.7l-26.23,15.5a5,5,0,0,0,5.09,8.61l65.39-38.66,65.38,38.66a5,5,0,1,0,5.09-8.61l-26.22-15.5V294Zm-104.72,50.3V299.89l24.42,14.44Zm68.5-20h-6a5,5,0,0,0,0,10h6v10L403,314.33l24.43-14.44Z" fill="#000000"/><path d="M176.86,271.63a5,5,0,0,0-5,5v77.85c0,.12,0,.23,0,.35s0,.36.06.54a4.75,4.75,0,0,0,.14.54c0,.11,0,.22.09.33l0,.09c0,.1.09.2.14.3a5.05,5.05,0,0,0,.28.51c.05.09.11.17.17.26s.26.33.4.48l.17.19a5,5,0,0,0,.67.55l.1.05a4.22,4.22,0,0,0,.66.36c.09.05.19.08.28.12s.39.13.59.18l.28.06a4.43,4.43,0,0,0,.9.09,5,5,0,0,0,.94-.09l.38-.11a3,3,0,0,0,.43-.12l44.71-16.76,42.7,16c.14,0,.29.08.43.12s.25.08.38.1a5,5,0,0,0,.94.1,5.28,5.28,0,0,0,.9-.09l.28-.07a5.76,5.76,0,0,0,.59-.18l.28-.11a4.22,4.22,0,0,0,.66-.36l.1-.06a5,5,0,0,0,.67-.55l.17-.18a6.12,6.12,0,0,0,.4-.49l.17-.25a3.74,3.74,0,0,0,.28-.52c.05-.1.1-.19.14-.29a.47.47,0,0,1,0-.1c0-.11.05-.22.08-.33a4.58,4.58,0,0,0,.14-.53,3.55,3.55,0,0,0,.06-.55c0-.12,0-.23,0-.34V323.86l28.38-10.64a5,5,0,1,0-3.51-9.36l-74.32,27.86-41.46-15.55V276.63A5,5,0,0,0,176.86,271.63Zm85.91,56v18.9l-25.2-9.45Zm-53.69,9.45-27.22,10.21V326.85Z" fill="#000000"/><path d="M446.85,401.36a3.4,3.4,0,0,0-.09-.46,7.71,7.71,0,0,0-.33-.93c-.07-.14-.15-.27-.23-.41s-.19-.3-.29-.44-.08-.13-.13-.19-.11-.11-.16-.16a4.44,4.44,0,0,0-.38-.37,2.6,2.6,0,0,0-.36-.3c-.13-.1-.27-.18-.41-.27l-.42-.23c-.15-.07-.29-.12-.45-.18l-.47-.14a3.4,3.4,0,0,0-.46-.09,3,3,0,0,0-.52-.05l-.22,0H356a5,5,0,0,0,0,10H428l-30.14,25H356a5,5,0,0,0-5,5v33.82L341.16,479a5,5,0,1,0,6.38,7.7l10.14-8.4h84.25a5,5,0,0,0,0-10H369.76l31.74-26.26h40.43a5,5,0,0,0,5-5v-35a2.08,2.08,0,0,0,0-.23A3.05,3.05,0,0,0,446.85,401.36ZM361,462.61V442.07h24.82Zm52.59-30.54,23.35-19.33v19.33Z" fill="#000000"/><path d="M308.6,406.87a5,5,0,0,0-5.09-8.61l-65.38,38.65-65.39-38.65a5,5,0,1,0-5.09,8.61l26.23,15.5v40.7l-26.23,15.5a5,5,0,1,0,5.09,8.61l65.39-38.65,65.38,38.65a5,5,0,1,0,5.09-8.61l-26.22-15.5v-40.7ZM203.88,457.16V428.28l24.42,14.44Zm68.5-20h-6a5,5,0,1,0,0,10h6v10L248,442.72l24.43-14.44Z" fill="#000000"/><path d="M139.44,432.25,65.13,460.12,23.66,444.57V405a5,5,0,0,0-10,0v77.85c0,.11,0,.22,0,.34a5.35,5.35,0,0,0,.05.55,4.58,4.58,0,0,0,.14.53c0,.11,0,.22.09.33s0,.06,0,.1.09.19.14.29.18.35.28.52l.17.25c.13.17.26.33.4.49l.17.18a5,5,0,0,0,.67.55l.1.06a4.22,4.22,0,0,0,.66.36l.29.11a5.58,5.58,0,0,0,.58.18l.28.07a5.49,5.49,0,0,0,.9.09,5.11,5.11,0,0,0,.95-.1c.13,0,.25-.07.37-.1l.44-.12L65.13,470.8l42.69,16a3.45,3.45,0,0,0,.43.12l.38.11a5.07,5.07,0,0,0,.94.09,5.5,5.5,0,0,0,.91-.09l.28-.06a4.36,4.36,0,0,0,.58-.19l.28-.11a4.83,4.83,0,0,0,.67-.36l.09-.05a4.42,4.42,0,0,0,.67-.56,1.45,1.45,0,0,0,.17-.18,3.88,3.88,0,0,0,.4-.49l.18-.25c.1-.16.19-.34.28-.52s.09-.19.13-.29l.05-.09c0-.11,0-.22.08-.33a4.77,4.77,0,0,0,.15-.54,4.89,4.89,0,0,0,.05-.55c0-.11,0-.22,0-.34V452.26L143,441.62a5,5,0,0,0-3.51-9.37ZM23.66,475.66V455.25l27.22,10.21Zm80.92-.75-25.21-9.45L104.58,456Z" fill="#000000"/><path d="M87,266.57c-.07-.06-.16-.1-.23-.16s-.29-.21-.44-.31-.27-.15-.41-.22l-.45-.2-.48-.15-.45-.1a4.93,4.93,0,0,0-.54-.05,2.66,2.66,0,0,0-.28,0l-.16,0a3.19,3.19,0,0,0-.54.05l-.45.07c-.16,0-.32.1-.48.15a3.34,3.34,0,0,0-.44.17,4.36,4.36,0,0,0-.42.23,3.66,3.66,0,0,0-.42.26l-.35.29A4.49,4.49,0,0,0,80,267l-.12.12c-.07.07-.11.16-.17.23a4.91,4.91,0,0,0-.31.44c-.08.13-.15.27-.22.41s-.14.3-.2.45-.1.32-.15.48-.07.3-.1.46a4.53,4.53,0,0,0-.05.53,2.4,2.4,0,0,0,0,.28v47.53l-30.74,31.6H13a5,5,0,1,0,0,10H83.68a5,5,0,0,0,5-5V321.94l21.42-22L143.63,329a5,5,0,0,0,3.28,1.22,5,5,0,0,0,3.28-8.77Zm-8.28,82.91H61.89l16.79-17.26Zm10-41.88V281.31l13.86,12Z" fill="#000000"/><path d="M554.76,395a1.19,1.19,0,0,0-.23-.16,3.47,3.47,0,0,0-.44-.31,3.3,3.3,0,0,0-.41-.23l-.45-.2-.48-.14a3.63,3.63,0,0,0-.45-.1l-.54-.06c-.09,0-.18,0-.28,0l-.16,0-.54.05c-.15,0-.3,0-.45.08l-.48.15-.44.16-.42.23-.42.26-.35.29a4.59,4.59,0,0,0-.39.37,1.31,1.31,0,0,0-.12.11c-.07.08-.11.16-.17.23s-.21.29-.3.44a4.23,4.23,0,0,0-.23.41c-.07.15-.14.3-.2.46a3.64,3.64,0,0,0-.14.47c0,.15-.08.3-.11.46s0,.35,0,.53,0,.19,0,.28v47.54l-30.73,31.6h-35a5,5,0,0,0,0,10h70.73a5,5,0,0,0,5-5V450.34l21.43-22,33.52,29.11a5,5,0,1,0,6.56-7.55Zm-8.28,82.91H529.7l16.78-17.26Zm10-41.89V409.71l13.86,12Z" fill="#000000"/></g></svg>