<svg xmlns="http://www.w3.org/2000/svg" width="321.56" height="1023.17" viewBox="0 0 321.56 1023.17"><path d="M31.82,623.53A5,5,0,0,0,35,622.38L45.14,614h84.25a5,5,0,0,0,0-10H57.22L89,577.72h40.43a5,5,0,0,0,5-5v-35c0-.08,0-.16,0-.23s0-.35-.05-.53l-.09-.46a4.26,4.26,0,0,0-.15-.47c-.06-.16-.12-.31-.19-.46s-.14-.27-.22-.4a3.52,3.52,0,0,0-.3-.45,2.14,2.14,0,0,0-.13-.19,1.21,1.21,0,0,0-.16-.16,4.31,4.31,0,0,0-.37-.37l-.36-.3-.41-.26a2.55,2.55,0,0,0-.43-.23,3.38,3.38,0,0,0-.44-.18,4.26,4.26,0,0,0-.47-.15c-.15,0-.31-.06-.46-.09l-.52-.05-.23,0H43.46a5,5,0,0,0,0,10h72.05l-30.15,25H43.46a5,5,0,0,0-5,5v33.82l-9.84,8.14a5,5,0,0,0,3.2,8.85Zm92.57-75.13v19.32H101.05ZM48.46,577.72H73.28L48.46,598.26Z"/><path d="M168.63,623.53h70.73a5,5,0,0,0,5-5V586l21.43-22,33.52,29.12a5,5,0,1,0,6.56-7.55l-63.23-54.91c-.07-.06-.15-.1-.23-.16a3.47,3.47,0,0,0-.44-.31l-.4-.22a2.76,2.76,0,0,0-.47-.2,4.57,4.57,0,0,0-.93-.25,4.36,4.36,0,0,0-.52-.05,2.85,2.85,0,0,0-.29,0h-.17a4.6,4.6,0,0,0-.52.06l-.46.07a3.53,3.53,0,0,0-.46.15,3.61,3.61,0,0,0-.46.17,4.23,4.23,0,0,0-.42.22l-.42.26c-.12.09-.23.2-.35.3a4.38,4.38,0,0,0-.39.36l-.12.12a1.88,1.88,0,0,0-.16.23,3.47,3.47,0,0,0-.31.44,3.3,3.3,0,0,0-.23.41c-.07.15-.14.3-.2.45s-.1.32-.14.48a3.63,3.63,0,0,0-.1.45,5,5,0,0,0-.06.54c0,.09,0,.18,0,.28v47.53l-30.73,31.6h-35a5,5,0,0,0,0,10Zm75.73-78.17,13.87,12-13.87,14.25Zm-10,50.91v17.26H217.58Z"/><path d="M174.34,665.24a5,5,0,0,0-5,5v77.85c0,.12,0,.23,0,.34a4.89,4.89,0,0,0,.05.55,5.44,5.44,0,0,0,.15.54,3,3,0,0,0,.08.32l.05.1c0,.1.09.2.13.29s.18.36.28.52l.18.25a3.17,3.17,0,0,0,.4.49,1.45,1.45,0,0,0,.17.18,5.1,5.1,0,0,0,.67.56l.09,0a4.83,4.83,0,0,0,.67.36l.28.11a3,3,0,0,0,.58.18l.28.07a5.5,5.5,0,0,0,.91.09,4.36,4.36,0,0,0,.94-.1,2.66,2.66,0,0,0,.38-.1c.14,0,.29-.07.43-.12L220.81,736l42.69,16c.15.05.29.07.43.11l.38.11a5.11,5.11,0,0,0,.95.1,4.59,4.59,0,0,0,.9-.1l.28-.06A5.58,5.58,0,0,0,267,752l.29-.11a7,7,0,0,0,.66-.36l.1-.06a5,5,0,0,0,.67-.55l.16-.18a6.26,6.26,0,0,0,.41-.49l.17-.26c.1-.16.19-.33.28-.51s.1-.19.14-.29a1,1,0,0,1,0-.1c0-.11.05-.22.09-.33a4.75,4.75,0,0,0,.14-.54,4.93,4.93,0,0,0,.05-.54c0-.12,0-.23,0-.35V717.47l28.37-10.64a5,5,0,1,0-3.51-9.36l-74.31,27.86-41.47-15.55V670.24A5,5,0,0,0,174.34,665.24Zm85.92,56v18.9l-25.21-9.45Zm-53.69,9.45-27.23,10.21V720.46Z"/><path d="M13.62,753.09H84.35a5,5,0,0,0,5-5V715.55l21.43-22,33.52,29.12a5,5,0,1,0,6.56-7.55L87.63,660.18c-.07-.06-.15-.1-.23-.16a3.54,3.54,0,0,0-.85-.53,3.62,3.62,0,0,0-.45-.2l-.48-.15a3.63,3.63,0,0,0-.45-.1l-.54-.06-.28,0h-.16l-.54.06-.45.07c-.16,0-.31.1-.47.15a3.34,3.34,0,0,0-.44.17,3.55,3.55,0,0,0-.43.23c-.14.08-.28.16-.41.25s-.24.2-.36.3a3.33,3.33,0,0,0-.39.36l-.12.12a1.88,1.88,0,0,0-.16.23,3.47,3.47,0,0,0-.31.44,3.3,3.3,0,0,0-.23.41c-.07.15-.14.3-.2.45s-.1.31-.14.48a3.63,3.63,0,0,0-.1.45,5,5,0,0,0-.06.54c0,.09,0,.18,0,.28v47.53l-30.73,31.6h-35a5,5,0,0,0,0,10Zm75.73-78.17,13.87,12L89.35,701.21Zm-10,50.91v17.26H62.57Z"/><path d="M306.09,800.87a5,5,0,0,0-5.09-8.61l-65.39,38.65-65.38-38.65a5,5,0,0,0-5.09,8.61l26.22,15.5v40.7l-26.22,15.5a5,5,0,1,0,5.09,8.61l65.38-38.65L301,881.18a5,5,0,0,0,5.09-8.61l-26.23-15.5v-40.7ZM201.36,851.16V822.28l24.43,14.44Zm68.5-20h-6a5,5,0,0,0,0,10h6v10l-24.42-14.44,24.42-14.44Z"/><path d="M19.33,794a5,5,0,0,0-5,5v77.85c0,.11,0,.23,0,.34a5.35,5.35,0,0,0,.05.55,4.61,4.61,0,0,0,.15.53c0,.11,0,.22.08.33l0,.1c0,.1.09.19.13.29s.18.35.28.52l.18.25a4.52,4.52,0,0,0,.4.49l.17.18a5,5,0,0,0,.67.55l.09.06a4.83,4.83,0,0,0,.67.36l.28.11c.19.07.39.13.58.18l.28.07a5.5,5.5,0,0,0,.91.09,5.09,5.09,0,0,0,.94-.1c.13,0,.25-.07.38-.1s.29-.07.43-.12L65.8,864.8l42.69,16a4,4,0,0,0,.43.12l.38.11a5.09,5.09,0,0,0,1,.09,4.58,4.58,0,0,0,.9-.09l.28-.06a3.93,3.93,0,0,0,.58-.19l.29-.11a4.22,4.22,0,0,0,.66-.36l.1,0a4.42,4.42,0,0,0,.67-.56c.06-.05.11-.12.17-.18a5,5,0,0,0,.4-.49l.17-.25c.1-.16.19-.34.28-.52a2.59,2.59,0,0,0,.14-.29l0-.09c0-.11,0-.22.09-.33a4.75,4.75,0,0,0,.14-.54,4.89,4.89,0,0,0,0-.55c0-.11,0-.22,0-.34V846.26l28.37-10.64a5,5,0,0,0-3.5-9.37L65.8,854.12,24.33,838.57V799A5,5,0,0,0,19.33,794Zm85.92,56v18.91L80,859.46Zm-53.69,9.46-27.23,10.2V849.25Z"/><path d="M289.33,923.75l-.09-.46a4.26,4.26,0,0,0-.15-.47c-.06-.15-.12-.31-.19-.46s-.14-.27-.22-.4a3.52,3.52,0,0,0-.3-.45,2.14,2.14,0,0,0-.13-.19,1.21,1.21,0,0,0-.16-.16,4.31,4.31,0,0,0-.37-.37l-.36-.3-.41-.26a3.55,3.55,0,0,0-.43-.23,3.38,3.38,0,0,0-.44-.18,4.26,4.26,0,0,0-.47-.15c-.15,0-.3-.06-.46-.09l-.52-.05-.23,0H198.47a5,5,0,0,0,0,10h72l-30.15,25h-41.9a5,5,0,0,0-5,5v33.82l-9.84,8.14a5,5,0,0,0,3.2,8.85,4.92,4.92,0,0,0,3.18-1.15l10.14-8.39H284.4a5,5,0,1,0,0-10H212.23L244,964.46H284.4a5,5,0,0,0,5-5v-35c0-.08,0-.15,0-.23S289.35,923.93,289.33,923.75ZM203.47,985V964.46h24.82Zm52.59-30.54,23.34-19.32v19.32Z"/><path d="M151.08,929.27a5,5,0,1,0-5.09-8.61L80.6,959.31,15.22,920.66a5,5,0,0,0-5.09,8.61l26.22,15.5v40.7L10.13,1001a5,5,0,0,0,5.09,8.61L80.6,970.92,146,1009.58a5,5,0,1,0,5.09-8.61l-26.23-15.5v-40.7ZM46.35,979.55V950.68l24.43,14.44Zm68.5-20h-6a5,5,0,0,0,0,10h6v10L90.43,965.12l24.42-14.44Z"/><path d="M153.24,22.66a5,5,0,0,0-5.09-8.61L82.76,52.7,17.38,14.05a5,5,0,0,0-5.09,8.61l26.22,15.5v40.7L12.29,94.36A5,5,0,0,0,17.38,103L82.76,64.32,148.15,103a5,5,0,0,0,5.09-8.61L127,78.86V38.16ZM48.51,73V44.07L72.94,58.51Zm68.5-20h-6a5,5,0,1,0,0,10h6V73L92.59,58.51,117,44.07Z"/><path d="M192.18,103.66a5,5,0,0,0,3.18-1.14l10.14-8.4h84.25a5,5,0,0,0,0-10H217.58l31.74-26.27h40.43a5,5,0,0,0,5-5V17.9c0-.08,0-.15,0-.23s0-.35-.05-.53l-.09-.46a4.26,4.26,0,0,0-.15-.47c-.06-.15-.12-.31-.19-.46s-.14-.27-.22-.4a4.4,4.4,0,0,0-.3-.45,2.14,2.14,0,0,0-.13-.19.77.77,0,0,0-.16-.15,3.23,3.23,0,0,0-.37-.37l-.36-.3a3.62,3.62,0,0,0-.41-.27c-.14-.08-.28-.16-.43-.23a3.38,3.38,0,0,0-.44-.18,4.19,4.19,0,0,0-.47-.14,3.73,3.73,0,0,0-.46-.09l-.52-.06-.23,0H203.82a5,5,0,0,0,0,10h72.05l-30.15,25h-41.9a5,5,0,0,0-5,5V86.67L189,94.81a5,5,0,0,0,3.2,8.85Zm92.57-75.13V47.85H261.41ZM208.82,57.85h24.82L208.82,78.4Z"/><path d="M45.62,177.41a5,5,0,0,0-5,5v33.82l-9.83,8.14a5,5,0,0,0,6.37,7.71l10.14-8.4h84.25a5,5,0,0,0,0-10H59.38l31.75-26.27h40.42a5,5,0,0,0,5-5V147.46c0-.08,0-.15,0-.23s0-.35-.05-.53,0-.31-.09-.46a4.26,4.26,0,0,0-.15-.47,4.47,4.47,0,0,0-.19-.46,4,4,0,0,0-.22-.4,4.4,4.4,0,0,0-.3-.45,2,2,0,0,0-.12-.19c0-.06-.11-.1-.16-.15a3.3,3.3,0,0,0-.38-.37q-.18-.17-.36-.3a3.62,3.62,0,0,0-.41-.27l-.42-.23a4.22,4.22,0,0,0-.45-.18,2.79,2.79,0,0,0-.47-.14,3.4,3.4,0,0,0-.46-.09,4.6,4.6,0,0,0-.52-.06l-.23,0H45.62a5,5,0,0,0,0,10h72.05L87.52,177.41Zm5,30.55V187.41H75.44Zm75.93-49.87v19.32H103.21Z"/><path d="M174,233.22h70.73a5,5,0,0,0,5-5V195.68l21.43-22,33.52,29.11a5,5,0,1,0,6.56-7.55L248,140.31c-.07-.06-.15-.1-.23-.16l-.43-.31-.42-.22c-.15-.07-.29-.14-.45-.2l-.48-.15-.45-.1a4.93,4.93,0,0,0-.54,0,2.4,2.4,0,0,0-.28,0l-.16,0a4.93,4.93,0,0,0-.54,0,3.54,3.54,0,0,0-.45.08,4.19,4.19,0,0,0-.47.14c-.15.06-.3.1-.44.17s-.29.15-.43.23a3.54,3.54,0,0,0-.41.26c-.13.09-.24.19-.36.29a4.59,4.59,0,0,0-.39.37l-.12.11c-.06.07-.11.16-.16.23a4.37,4.37,0,0,0-.31.44,3.3,3.3,0,0,0-.23.41c-.07.15-.14.3-.2.45s-.1.32-.14.48a3.41,3.41,0,0,0-.1.46,4.52,4.52,0,0,0-.06.53c0,.09,0,.18,0,.28v47.53L209,223.22H174a5,5,0,0,0,0,10Zm75.73-78.17,13.87,12-13.87,14.25Zm-10,50.91v17.26H222.93Z"/><path d="M179.69,274.16a5,5,0,0,0-5,5V357c0,.12,0,.23,0,.34a4.89,4.89,0,0,0,.05.55,4.77,4.77,0,0,0,.15.54c0,.11,0,.22.08.33l.05.09c0,.1.09.2.13.29s.18.36.28.52l.18.25a3.17,3.17,0,0,0,.4.49,1.45,1.45,0,0,0,.17.18,5.1,5.1,0,0,0,.67.56l.09.05a4.83,4.83,0,0,0,.67.36l.28.11a3.93,3.93,0,0,0,.58.19l.28.06a5.5,5.5,0,0,0,.91.09,5.07,5.07,0,0,0,.94-.09l.38-.11a3.45,3.45,0,0,0,.43-.12l44.71-16.76,42.69,16a3.89,3.89,0,0,0,.43.11l.38.11a5.11,5.11,0,0,0,.95.1,4.59,4.59,0,0,0,.9-.1l.28-.06a5.58,5.58,0,0,0,.58-.18l.29-.11a7,7,0,0,0,.66-.36l.1-.06a5,5,0,0,0,.67-.55l.16-.18a6.26,6.26,0,0,0,.41-.49c.06-.08.11-.17.17-.26s.19-.33.28-.51.1-.19.14-.29a1,1,0,0,1,0-.1c0-.11,0-.22.09-.33a4.75,4.75,0,0,0,.14-.54,4.93,4.93,0,0,0,.05-.54c0-.12,0-.23,0-.35V326.39L304,315.75a5,5,0,1,0-3.51-9.36l-74.31,27.86L184.69,318.7V279.16A5,5,0,0,0,179.69,274.16Zm85.92,56V349l-25.21-9.45Zm-53.69,9.45L184.69,349.8V329.38Z"/><path d="M311.44,409.4a5,5,0,0,0-5.09-8.61L241,439.44l-65.38-38.65a5,5,0,1,0-5.09,8.61l26.22,15.5v40.7l-26.22,15.5a5,5,0,1,0,5.09,8.61L241,451.06l65.39,38.65a5,5,0,1,0,5.09-8.61l-26.23-15.5V424.9ZM206.71,459.69V430.81l24.43,14.44Zm68.5-20h-6a5,5,0,0,0,0,10h6v10l-24.42-14.44,24.42-14.44Z"/><path d="M142.28,434.78,68,462.64,26.5,447.1V407.56a5,5,0,0,0-10,0v77.85c0,.11,0,.22,0,.34a3.85,3.85,0,0,0,.2,1.08c0,.11,0,.22.08.33a.31.31,0,0,1,.05.1c0,.1.09.19.14.29a3.15,3.15,0,0,0,.28.51,2.33,2.33,0,0,0,.17.26,6.12,6.12,0,0,0,.4.49L18,489a5,5,0,0,0,.67.55l.1.06a7,7,0,0,0,.66.36l.28.11a5.76,5.76,0,0,0,.59.18,2.3,2.3,0,0,0,.28.06,4.43,4.43,0,0,0,.9.1,5,5,0,0,0,.94-.1l.38-.1c.14,0,.29-.07.43-.12L68,473.32l42.7,16c.14.05.28.08.43.12s.25.08.38.1a4.29,4.29,0,0,0,.94.1,5.38,5.38,0,0,0,.9-.09l.28-.07a3.32,3.32,0,0,0,.59-.18l.28-.11a4.22,4.22,0,0,0,.66-.36l.1,0a5.1,5.1,0,0,0,.67-.56l.17-.18a5,5,0,0,0,.4-.49,2.2,2.2,0,0,0,.17-.25,5.21,5.21,0,0,0,.28-.52,2.59,2.59,0,0,0,.14-.29,1,1,0,0,0,0-.1,3,3,0,0,0,.09-.32,5.36,5.36,0,0,0,.14-.54c0-.18,0-.36.06-.55s0-.22,0-.34V454.78l28.38-10.64a5,5,0,0,0-3.51-9.36ZM26.5,478.19V457.78L53.72,468Zm80.91-.76L82.2,468l25.21-9.45Z"/><path d="M89.79,269.1c-.07-.06-.15-.1-.23-.16a4.25,4.25,0,0,0-.43-.31l-.42-.22a3.07,3.07,0,0,0-.45-.2,4.26,4.26,0,0,0-.47-.15,3.41,3.41,0,0,0-.46-.1l-.54-.06-.27,0h-.17l-.54.06-.44.07c-.17,0-.32.1-.48.15a3.34,3.34,0,0,0-.44.17,3.55,3.55,0,0,0-.43.23c-.14.08-.28.16-.41.25s-.24.2-.36.3a4.38,4.38,0,0,0-.39.36l-.12.12c-.06.07-.1.15-.16.23a3.47,3.47,0,0,0-.31.44,3.23,3.23,0,0,0-.22.41,3,3,0,0,0-.2.45,4.42,4.42,0,0,0-.15.48,3.63,3.63,0,0,0-.1.45,5,5,0,0,0-.06.54c0,.09,0,.18,0,.28v47.53L50.78,352h-35a5,5,0,1,0,0,10H86.52a5,5,0,0,0,5-5V324.47l21.42-22,33.53,29.12A5,5,0,0,0,153,324ZM81.52,352H64.73l16.79-17.26Zm10-41.88V283.84l13.86,12Z"/></svg>