<svg xmlns="http://www.w3.org/2000/svg" width="189.38" height="247.98" viewBox="0 0 189.38 247.98"><rect x="6" y="104.99" width="175.78" height="46.67" fill="#1289a7"/><path d="M181.78,157.66H6a6,6,0,0,1-6-6V105a6,6,0,0,1,6-6H181.78a6,6,0,0,1,6,6v46.67A6,6,0,0,1,181.78,157.66ZM12,145.66H175.78V111H12Z"/><polygon points="156.04 241.79 32.4 241.97 32.4 6 156.04 55.74 156.04 241.79 156.04 241.79" fill="#ffc312"/><path d="M32.4,248a6,6,0,0,1-6-6V6A6,6,0,0,1,34.64.43L158.28,50.17A6,6,0,0,1,162,55.74v186a6,6,0,0,1-6,6L32.41,248ZM156,241.79h0ZM38.4,14.88V236L150,235.8v-176Z"/><rect x="83.89" y="148.38" width="17.83" height="40.92" fill="#c4e538"/><path d="M101.72,195.3H83.89a6,6,0,0,1-6-6V148.38a6,6,0,0,1,6-6h17.83a6,6,0,0,1,6,6V189.3A6,6,0,0,1,101.72,195.3Zm-11.83-12h5.83V154.38H89.89Z"/><path d="M64.45,40.6H34.36a6,6,0,0,1,0-12H64.45a6,6,0,0,1,0,12Z"/><path d="M55.49,62.93H34.36a6,6,0,0,1,0-12H55.49a6,6,0,0,1,0,12Z"/><path d="M64.54,85.27H34.36a6,6,0,0,1,0-12H64.54a6,6,0,0,1,0,12Z"/><path d="M55.49,107.61H34.36a6,6,0,0,1,0-12H55.49a6,6,0,0,1,0,12Z"/><circle cx="128.43" cy="134.13" r="13.08" fill="#fff"/><path d="M128.43,153.21a19.08,19.08,0,1,1,19.08-19.08A19.1,19.1,0,0,1,128.43,153.21Zm0-26.15a7.08,7.08,0,1,0,7.08,7.07A7.08,7.08,0,0,0,128.43,127.06Z"/><circle cx="59.81" cy="133.26" r="13.08" fill="#fff"/><path d="M59.81,152.34a19.08,19.08,0,1,1,19.07-19.08A19.1,19.1,0,0,1,59.81,152.34Zm0-26.15a7.08,7.08,0,1,0,7.07,7.07A7.08,7.08,0,0,0,59.81,126.19Z"/><polygon points="93.3 205.33 99.86 223.65 106.43 241.97 93.3 241.97 80.16 241.97 86.73 223.65 93.3 205.33" fill="#ea2027"/><path d="M106.43,248H80.16a6,6,0,0,1-5.65-8l13.14-36.64a6,6,0,0,1,11.29,0L112.08,240a6,6,0,0,1-5.65,8ZM88.68,236h9.23L93.3,223.11Z"/></svg>