<svg xmlns="http://www.w3.org/2000/svg" width="262.49" height="151.93" viewBox="0 0 262.49 151.93"><path d="M131.24,131.64C211.08,131.64,256.48,81,256.48,81L212.85,6,131.24,61.19,49.64,6,6,81S51.41,131.64,131.24,131.64Z" fill="#fda7df"/><path d="M131.24,137.64C49.67,137.64,3.46,87.13,1.53,85a6,6,0,0,1-.72-7L44.45,3A6,6,0,0,1,53,1L131.24,54,209.48,1A6,6,0,0,1,218,3l43.64,75a6,6,0,0,1-.72,7C259,87.13,212.82,137.64,131.24,137.64ZM13.5,80c11.22,10.65,53,45.63,117.74,45.63S237.76,90.67,249,80L210.89,14.57,134.6,66.16a6,6,0,0,1-6.72,0L51.59,14.57Z"/><circle cx="177.89" cy="75.72" r="13.08" fill="#fff"/><path d="M177.89,94.79A19.08,19.08,0,1,1,197,75.72,19.09,19.09,0,0,1,177.89,94.79Zm0-26.15A7.08,7.08,0,1,0,185,75.72,7.09,7.09,0,0,0,177.89,68.64Z"/><circle cx="84.59" cy="75.72" r="13.08" fill="#fff"/><path d="M84.59,94.79a19.08,19.08,0,1,1,19.08-19.07A19.09,19.09,0,0,1,84.59,94.79Zm0-26.15a7.08,7.08,0,1,0,7.08,7.08A7.08,7.08,0,0,0,84.59,68.64Z"/><path d="M131.24,67.2a6,6,0,0,1-5.63-4L112,26a6,6,0,1,1,11.27-4.12l13.62,37.26a6,6,0,0,1-3.58,7.7A5.94,5.94,0,0,1,131.24,67.2Z"/><path d="M131.24,67.2a6,6,0,0,1-5.63-8.07l13.61-37.26A6,6,0,1,1,150.49,26L136.88,63.25A6,6,0,0,1,131.24,67.2Z"/><rect x="118.78" y="72.08" width="26.19" height="36.67" rx="10.91" fill="#9980fa"/><path d="M131.88,114.76a19.12,19.12,0,0,1-19.1-19.1V85.18a19.1,19.1,0,1,1,38.2,0V95.66A19.12,19.12,0,0,1,131.88,114.76Zm0-36.68a7.11,7.11,0,0,0-7.1,7.1V95.66a7.1,7.1,0,1,0,14.2,0V85.18A7.11,7.11,0,0,0,131.88,78.08Z"/><ellipse cx="132.45" cy="134.05" rx="17.69" ry="11.88" fill="#ea2027"/><path d="M132.45,151.93c-13.29,0-23.69-7.86-23.69-17.88s10.4-17.88,23.69-17.88,23.69,7.85,23.69,17.88S145.74,151.93,132.45,151.93Zm0-23.76c-7.14,0-11.69,3.48-11.69,5.88s4.55,5.88,11.69,5.88,11.69-3.49,11.69-5.88S139.59,128.17,132.45,128.17Z"/><path d="M49.64,61.31a6,6,0,0,1-6-6V6a6,6,0,0,1,12,0V55.31A6,6,0,0,1,49.64,61.31Z"/><path d="M30.26,82a6,6,0,0,1-6-6V40a6,6,0,1,1,12,0V76A6,6,0,0,1,30.26,82Z"/><path d="M214,61.31a6,6,0,0,1-6-6V6a6,6,0,0,1,12,0V55.31A6,6,0,0,1,214,61.31Z"/><line x1="233.35" y1="75.98" x2="233.35" y2="40" fill="#fff"/><path d="M233.35,82a6,6,0,0,1-6-6V40a6,6,0,0,1,12,0V76A6,6,0,0,1,233.35,82Z"/></svg>