<svg xmlns="http://www.w3.org/2000/svg" width="195.41" height="215.98" viewBox="0 0 195.41 215.98"><path d="M153.14,90.82l12.87,73-68.3,39.27-68.3-39.27,12.86-73a4.37,4.37,0,0,0,.42-.8H89.5l3.19,4.82,0,0a6,6,0,0,0,.64.78c.06.06.1.12.16.17a8.93,8.93,0,0,0,.83.69s0,0,0,0l.12.06a4.59,4.59,0,0,0,.57.32,2.18,2.18,0,0,0,.27.11c.15.07.31.13.48.19s.2.06.31.1l.48.11.3,0c.24,0,.48,0,.72.06h.14l.71-.06.31,0,.48-.11.31-.1.48-.18.27-.13a3.43,3.43,0,0,0,.56-.31l.12-.06s0,0,0,0a7.9,7.9,0,0,0,.84-.69l.15-.17a6.11,6.11,0,0,0,.65-.78l0,0L105.92,90h46.8A6.09,6.09,0,0,0,153.14,90.82Z" fill="#12cbc4"/><path d="M161.11,73.36,149.25,61.72l.95-1a6,6,0,0,0,4.25,1.76h20.48l-12.6,12.6A5.88,5.88,0,0,0,161.11,73.36Z" fill="#ffc312"/><polygon points="148.73 78.02 113.87 78.02 127.61 57.3 148.73 78.02" fill="#ffc312"/><path d="M148.45,56.5a6,6,0,0,0,1.75,4.24l-.95,1L134.37,47.11,148.45,25.9Z" fill="#ffc312"/><polygon points="118.89 48.73 99.47 78.02 95.94 78.02 76.79 49.14 98.26 28.49 118.89 48.73" fill="#ffc312"/><path d="M96.14,97.32c-.11,0-.22-.06-.31-.1s-.33-.12-.48-.19a2.18,2.18,0,0,1-.27-.11,4.59,4.59,0,0,1-.57-.32l-.12-.06s0,0,0,0a8.93,8.93,0,0,1-.83-.69c-.06,0-.1-.11-.16-.17a6,6,0,0,1-.64-.78l0,0L89.5,90H42.69a4.37,4.37,0,0,1-.42.8l-12.86,73,68.3,39.27L166,163.79l-12.87-73a6.09,6.09,0,0,1-.42-.8h-46.8l-3.21,4.82,0,0a6.11,6.11,0,0,1-.65.78l-.15.17a7.9,7.9,0,0,1-.84.69s0,0,0,0l-.12.06a3.43,3.43,0,0,1-.56.31l-.27.13-.48.18-.31.1-.48.11-.31,0-.71.06h-.14c-.24,0-.48,0-.72-.06l-.3,0ZM19.77,172.09a6,6,0,0,1-2.92-6.25l13.5-76.51L1.76,60.74A6,6,0,0,1,6,50.5H35V6A6,6,0,0,1,46,2.69L70.05,39,94.15,15.8a6,6,0,0,1,8.36,0l23.14,22.72L149.44,2.69a6,6,0,0,1,11,3.31V50.5h29a6,6,0,0,1,4.25,10.24L165.07,89.33l13.5,76.51a6,6,0,0,1-2.92,6.25L100.7,215.18a6,6,0,0,1-6,0Zm142.56-97,12.6-12.6H154.45a6,6,0,0,1-6-6V25.9L134.37,47.11l14.88,14.61,11.86,11.64A5.88,5.88,0,0,1,162.33,75.1ZM113.87,78h34.86L127.61,57.3Zm-14.4,0,19.42-29.29L98.26,28.49,76.79,49.14,96,78ZM81.55,78,68,57.6,46.76,78ZM61.25,47.44,47,25.9V56.5a6,6,0,0,1-6,6H20.49l12.6,12.6a5.7,5.7,0,0,1,1.26-1.79L46.28,61.84Z"/><polygon points="68 57.6 81.55 78.02 46.76 78.02 68 57.6" fill="#ffc312"/><path d="M47,56.5V25.9L61.25,47.44l-15,14.4-1.06-1.1A6,6,0,0,0,47,56.5Z" fill="#ffc312"/><path d="M46.28,61.84,34.35,73.31a5.7,5.7,0,0,0-1.26,1.79L20.49,62.5H41a6,6,0,0,0,4.25-1.76Z" fill="#ffc312"/><circle cx="62.69" cy="114.45" r="13.08" fill="#fff"/><path d="M62.69,133.52a19.08,19.08,0,1,1,19.07-19.07A19.1,19.1,0,0,1,62.69,133.52Zm0-26.15a7.08,7.08,0,1,0,7.07,7.08A7.08,7.08,0,0,0,62.69,107.37Z"/><circle cx="132.73" cy="114.45" r="13.08" fill="#fff"/><path d="M132.73,133.52a19.08,19.08,0,1,1,19.07-19.07A19.1,19.1,0,0,1,132.73,133.52Zm0-26.15a7.08,7.08,0,1,0,7.07,7.08A7.08,7.08,0,0,0,132.73,107.37Z"/><polygon points="97.71 149.02 87.62 134.19 77.53 119.36 97.71 119.36 117.88 119.36 107.8 134.19 97.71 149.02" fill="#ee5a24"/><path d="M97.71,155h0a6,6,0,0,1-5-2.63L72.57,122.73a6,6,0,0,1,5-9.37h40.35a6,6,0,0,1,5,9.37l-20.17,29.66A6,6,0,0,1,97.71,155Zm-8.84-29.66,8.84,13,8.84-13Z"/><circle cx="97.71" cy="175.16" r="16.15" fill="#ea2027"/><path d="M97.71,197.31a22.15,22.15,0,1,1,22.14-22.15A22.18,22.18,0,0,1,97.71,197.31Zm0-32.29a10.15,10.15,0,1,0,10.14,10.14A10.16,10.16,0,0,0,97.71,165Z"/></svg>