<svg xmlns="http://www.w3.org/2000/svg" width="204.54" height="175.74" viewBox="0 0 204.54 175.74"><path d="M192.28,42.85a61.13,61.13,0,0,1-.15,11.44l-49.39-30.6a36.65,36.65,0,0,1,6.89-6.88c7.94-5.94,16.5-6.38,26.16-1.35C185.62,20.57,191.17,29.79,192.28,42.85Z" fill="#fda7df"/><path d="M185.7,91.87l-9.63,56.37-73.8,15.38L28.48,148.24,18.83,91.87,54.1,66l23,7.24,6,21.92a6,6,0,0,0,5.78,4.41h26.79a6,6,0,0,0,5.78-4.41l6-21.92,23-7.24Z" fill="#fda7df"/><path d="M131.25,59.44,138,34.86,190,67.06l-2,11.59L155.09,54.49a6,6,0,0,0-5.36-.88Z" fill="#1289a7"/><path d="M138,34.86l-6.75,24.58,18.48-5.83a6,6,0,0,1,5.36.88L188,78.65l2-11.59Zm43.32-30c25.86,13.46,25.14,45.26,21.11,60.52l-15.23,89a6,6,0,0,1-4.69,4.86l-79,16.47a6.31,6.31,0,0,1-2.45,0L22,159.15a6,6,0,0,1-4.69-4.86l-15.22-89c-4-15.26-4.76-47.06,21.1-60.52,9.64-5,19.08-6.12,28.07-3.26C67,6.57,75.19,22.14,75.53,22.8c0,0,0,.06,0,.09a5.66,5.66,0,0,1,.39,1,.07.07,0,0,0,0,.06h0L93.46,87.54h17.63L128.55,24h0s0-.05,0-.06a6.61,6.61,0,0,1,.4-1l0-.09c.34-.66,8.5-16.23,24.27-21.25C162.24-1.31,171.69-.21,181.32,4.81Zm10.81,49.48a61.13,61.13,0,0,0,.15-11.44c-1.11-13.06-6.66-22.28-16.49-27.39-9.66-5-18.22-4.59-26.16,1.35a36.65,36.65,0,0,0-6.89,6.88Zm-16.06,94,9.63-56.37L150.43,66l-23,7.24-6,21.92a6,6,0,0,1-5.78,4.41H88.87a6,6,0,0,1-5.78-4.41l-6-21.92L54.1,66,18.83,91.87l9.65,56.37,73.79,15.38ZM73.29,59.44,66.54,34.86l-52,32.2,2,11.59L49.45,54.49a6,6,0,0,1,5.36-.88ZM12.4,54.29l49.39-30.6a36.35,36.35,0,0,0-6.89-6.88C47,10.87,38.4,10.43,28.74,15.46c-9.83,5.11-15.38,14.33-16.49,27.39A61.13,61.13,0,0,0,12.4,54.29Z"/><path d="M66.54,34.86l6.75,24.58L54.81,53.61a6,6,0,0,0-5.36.88L16.56,78.65l-2-11.59Z" fill="#1289a7"/><path d="M61.79,23.69,12.4,54.29a61.13,61.13,0,0,1-.15-11.44c1.11-13.06,6.66-22.28,16.49-27.39,9.66-5,18.22-4.59,26.16,1.35A36.35,36.35,0,0,1,61.79,23.69Z" fill="#fda7df"/><circle cx="144.98" cy="103" r="13.08" fill="#fff"/><path d="M145,122.08A19.08,19.08,0,1,1,164.06,103,19.09,19.09,0,0,1,145,122.08Zm0-26.16a7.08,7.08,0,1,0,7.08,7.08A7.08,7.08,0,0,0,145,95.92Z"/><circle cx="60.45" cy="103" r="13.08" fill="#fff"/><path d="M60.45,122.08A19.08,19.08,0,1,1,79.52,103,19.1,19.1,0,0,1,60.45,122.08Zm0-26.16A7.08,7.08,0,1,0,67.52,103,7.09,7.09,0,0,0,60.45,95.92Z"/><polygon points="122.47 159.97 122.47 144.36 101.44 136.56 80.4 144.36 80.4 159.97 101.44 167.77 122.47 159.97" fill="#ea2027"/><path d="M101.43,173.77a6,6,0,0,1-2.08-.37l-21-7.81A6,6,0,0,1,74.4,160V144.36a6,6,0,0,1,3.91-5.62l21-7.81a6,6,0,0,1,4.17,0l21,7.81a6,6,0,0,1,3.91,5.62V160a6,6,0,0,1-3.91,5.62l-21,7.81A6,6,0,0,1,101.43,173.77Zm-15-18,15,5.58,15-5.58v-7.26l-15-5.57-15,5.57Z"/><ellipse cx="102.27" cy="114.55" rx="10.4" ry="18.72" fill="#12cbc4"/><path d="M102.27,139.27c-9.35,0-16.4-10.63-16.4-24.72s7-24.73,16.4-24.73,16.4,10.63,16.4,24.73S111.62,139.27,102.27,139.27Zm0-37.45c-1,.19-4.38,4.53-4.38,12.73s3.39,12.54,4.41,12.72c1-.19,4.39-4.52,4.39-12.72S103.28,102,102.25,101.82Z"/></svg>