<svg xmlns="http://www.w3.org/2000/svg" width="158.1" height="243.4" viewBox="0 0 158.1 243.4"><path d="M83.5,18.11c3.21,3.54,78.62,87.21,74.43,131-1.37,14.34-14.59,34.16-39.29,58.92C100.75,226,83.53,239.81,82.8,240.4l-3.74,3-3.76-3c-.72-.59-17.95-14.43-35.83-32.34C14.76,183.3,1.55,163.48.17,149.14-4,105.32,71.4,21.65,74.6,18.11l4.46-4.9ZM146,148c2.86-30-43.79-90.3-66.93-116.82C55.91,57.71,9.25,118.06,12.12,148c1.31,13.71,18.79,34.59,36.86,52.6h60.15C127.2,182.59,144.67,161.71,146,148Zm-49.4,64.6H61.52c6.54,6,12.65,11.32,17.54,15.36C83.93,223.92,90.05,218.62,96.59,212.6Z"/><path d="M79.06,31.18C102.2,57.7,148.85,118,146,148c-1.32,13.71-18.79,34.59-36.86,52.6H49c-18.07-18-35.55-38.89-36.86-52.6C9.25,118.06,55.91,57.71,79.06,31.18Z" fill="#12cbc4"/><path d="M61.52,212.6H96.59c-6.54,6-12.66,11.32-17.53,15.36C74.17,223.92,68.06,218.62,61.52,212.6Z" fill="#ea2027"/><circle cx="120.1" cy="133.26" r="13.08" fill="#fff"/><path d="M120.1,152.34a19.08,19.08,0,1,1,19.08-19.08A19.1,19.1,0,0,1,120.1,152.34Zm0-26.16a7.08,7.08,0,1,0,7.08,7.08A7.09,7.09,0,0,0,120.1,126.18Z"/><circle cx="37.27" cy="133.95" r="13.08" fill="#fff"/><path d="M37.27,153A19.08,19.08,0,1,1,56.35,134,19.1,19.1,0,0,1,37.27,153Zm0-26.15A7.08,7.08,0,1,0,44.35,134,7.08,7.08,0,0,0,37.27,126.88Z"/><path d="M79.05,120a6,6,0,0,1-6-6V45.34a6,6,0,0,1,12,0V114A6,6,0,0,1,79.05,120Z"/><path d="M56.3,107.72a6,6,0,0,1-6-6v-28a6,6,0,0,1,12,0v28A6,6,0,0,1,56.3,107.72Z"/><line x1="101.81" y1="73.7" x2="101.81" y2="101.72" fill="#fff"/><path d="M101.81,107.72a6,6,0,0,1-6-6v-28a6,6,0,1,1,12,0v28A6,6,0,0,1,101.81,107.72Z"/><rect x="66.77" y="134.2" width="25.03" height="53.82" fill="#ffc312"/><path d="M91.8,194h-25a6,6,0,0,1-6-6V134.2a6,6,0,0,1,6-6h25a6,6,0,0,1,6,6V188A6,6,0,0,1,91.8,194Zm-19-12h13V140.2h-13Z"/><path d="M79.05,210.88a6,6,0,0,1-6-6V193.09a6,6,0,0,1,12,0v11.79A6,6,0,0,1,79.05,210.88Z"/><path d="M106.69,139.92H53.94a6,6,0,0,1,0-12h52.75a6,6,0,1,1,0,12Z"/><path d="M133.73,6V76.15a6,6,0,0,1-6,6H30.59a6,6,0,0,1-6-6V6a6,6,0,0,1,6-6h97.14A6,6,0,0,1,133.73,6Zm-12,64.15v-14H36.59v14Zm0-25.95V33.67H36.59V44.2Zm0-22.53V12H36.59v9.67Z"/><rect x="36.59" y="56.2" width="85.14" height="13.96" fill="#1289a7"/><rect x="36.59" y="33.67" width="85.14" height="10.52" fill="#9980fa"/><rect x="36.59" y="12" width="85.14" height="9.67" fill="#1289a7"/></svg>