<svg xmlns="http://www.w3.org/2000/svg" width="199.28" height="223.75" viewBox="0 0 199.28 223.75"><path d="M199.28,124.1v0s0,.08,0,.13a5.1,5.1,0,0,1-.11,1,5.45,5.45,0,0,1-.2.69c-.05.14-.07.3-.13.44a7,7,0,0,1-.39.71c-.06.09-.1.21-.16.32a5.49,5.49,0,0,1-.76.9L103.88,222a6,6,0,0,1-4.23,1.76A6,6,0,0,1,95.4,222L1.81,128.4s0,0,0,0l0,0c-.08-.08-.14-.18-.21-.26a4.53,4.53,0,0,1-.51-.63A3.84,3.84,0,0,1,.77,127a3.81,3.81,0,0,1-.29-.53c-.07-.18-.12-.38-.18-.57a5,5,0,0,1-.17-.55,5.78,5.78,0,0,1-.08-.74c0-.14,0-.28,0-.43v-.05a6.53,6.53,0,0,1,.08-.76A6.12,6.12,0,0,1,1,120.78l.06-.07a5.47,5.47,0,0,1,.68-.83h0L69.38,52.25a34.9,34.9,0,1,1,60.53,0l67.62,67.62a5.43,5.43,0,0,1,.75.9c.06.09.09.19.14.27.14.26.3.5.41.76s.07.26.12.4a4.12,4.12,0,0,1,.21.73A5.11,5.11,0,0,1,199.28,124.1ZM118,190.87l60.77-60.77-36.07,0-.29,27.12a6,6,0,0,1-6,5.94h-38a6,6,0,0,1-6-6.11l1.12-59.48L73,97.31l-.36,26.45a6,6,0,0,1-6,5.91L20.39,130l60.86,60.86,14.59-11.93a6,6,0,0,1,7.6,0Zm60.75-72.77L122.2,61.5a34.78,34.78,0,0,1-45.1,0L20.59,118l40.12-.3.36-26.56a6,6,0,0,1,6.07-5.91l32.58.38A6,6,0,0,1,104,87.44a6.11,6.11,0,0,1,1.69,4.29l-1.12,59.41h26l.3-27.13a6,6,0,0,1,6-5.94ZM120.94,43.27a22.9,22.9,0,1,0-42.58,0l17-17.05a6,6,0,0,1,8.48,0ZM113.66,53l-14-14-14,14a22.75,22.75,0,0,0,28,0Zm-14,156.3,9.86-9.87-9.86-8.06-9.87,8.06Z"/><path d="M178.81,130.1,118,190.87l-14.6-11.93a6,6,0,0,0-7.6,0L81.25,190.87,20.39,130l46.28-.34a6,6,0,0,0,6-5.91L73,97.31l20.56.24L92.42,157a6,6,0,0,0,6,6.11h38a6,6,0,0,0,6-5.94l.29-27.12Z" fill="#9980fa"/><path d="M122.2,61.5l56.59,56.6-42,0a6,6,0,0,0-6,5.94l-.3,27.13h-26l1.12-59.41A6.11,6.11,0,0,0,104,87.44a6,6,0,0,0-4.24-1.82l-32.58-.38a6,6,0,0,0-6.07,5.91l-.36,26.56-40.12.3L77.1,61.5a34.78,34.78,0,0,0,45.1,0Z" fill="#12cbc4"/><path d="M122.54,34.9a22.79,22.79,0,0,1-1.6,8.37L103.88,26.22a6,6,0,0,0-8.48,0l-17,17.05a22.59,22.59,0,0,1-1.61-8.37,22.9,22.9,0,1,1,45.79,0Z" fill="#9980fa"/><path d="M99.65,39l14,14a22.75,22.75,0,0,1-28,0Z" fill="#ffc312"/><polygon points="109.51 199.4 99.65 209.27 89.78 199.4 99.65 191.34 109.51 199.4" fill="#ea2027"/><polygon points="82.72 142.26 99.65 177.72 116.57 142.26 99.65 106.8 82.72 142.26" fill="#ee5a24"/><path d="M99.65,183.72a6,6,0,0,1-5.42-3.42L77.31,144.84a6,6,0,0,1,0-5.17l16.92-35.45a6,6,0,0,1,10.83,0L122,139.67a6,6,0,0,1,0,5.17L105.06,180.3A6,6,0,0,1,99.65,183.72ZM89.37,142.26l10.28,21.52,10.27-21.52L99.65,120.73Z"/><circle cx="53.95" cy="124.07" r="13.08" fill="#fff"/><path d="M54,143.15A19.08,19.08,0,1,1,73,124.07,19.1,19.1,0,0,1,54,143.15ZM54,117A7.08,7.08,0,1,0,61,124.07,7.09,7.09,0,0,0,54,117Z"/><circle cx="149.89" cy="124.07" r="13.08" fill="#fff"/><path d="M149.89,143.15A19.08,19.08,0,1,1,169,124.07,19.1,19.1,0,0,1,149.89,143.15Zm0-26.16a7.08,7.08,0,1,0,7.08,7.08A7.09,7.09,0,0,0,149.89,117Z"/></svg>