<svg xmlns="http://www.w3.org/2000/svg" width="191.03" height="248.06" viewBox="0 0 191.03 248.06"><circle cx="96.8" cy="24.43" r="18.43" fill="#ea2027"/><path d="M96.8,48.86a24.43,24.43,0,1,1,24.43-24.43A24.46,24.46,0,0,1,96.8,48.86ZM96.8,12a12.43,12.43,0,1,0,12.43,12.43A12.45,12.45,0,0,0,96.8,12Z"/><polyline points="36.44 46.06 6 59.8 51.63 132.93" fill="#fda7df"/><path d="M46.54,136.1.91,63a6,6,0,0,1,2.62-8.64L34,40.59l4.94,10.94L14.72,62.44l42,67.31Z"/><polyline points="154.59 46.06 185.03 59.8 139.4 132.93" fill="#fda7df"/><path d="M144.49,136.1l-10.18-6.35,42-67.31L152.12,51.53l4.94-10.94L187.5,54.33A6,6,0,0,1,190.12,63Z"/><path d="M161.13,24.35a6,6,0,0,1,1.36,4.85L141,161.51c0,.13-.06.25-.09.38l-.06.29a7.7,7.7,0,0,1-.35.95l-38.91,81.53a6,6,0,0,1-10.83,0L51.83,163.13a5.79,5.79,0,0,1-.52-1.62L29.78,29.2a6,6,0,0,1,1.36-4.85,6,6,0,0,1,4.57-2.11H156.56A6,6,0,0,1,161.13,24.35ZM129.69,156.06,149.51,34.24H42.77L63,158.74l8.44,17.68ZM120.55,177l2.87-6-16.8,5.88ZM108,203.23l2.85-6-9.51,6Zm-11.88,24.9,6.16-12.9H90ZM83,200.58l18.79-11.78-24.53-.24Z"/><polygon points="149.5 34.24 129.69 156.06 71.46 176.42 63.02 158.74 42.77 34.24 149.5 34.24" fill="#c4e538"/><polygon points="123.42 170.96 120.55 176.99 106.62 176.84 123.42 170.96" fill="#ffc312"/><polygon points="110.86 197.27 108.02 203.23 101.36 203.23 110.86 197.27" fill="#ffc312"/><polygon points="102.3 215.23 96.14 228.13 89.97 215.23 102.3 215.23" fill="#ffc312"/><polygon points="101.78 188.8 82.99 200.58 77.25 188.56 101.78 188.8" fill="#ffc312"/><circle cx="119.77" cy="64.19" r="13.08" fill="#fff"/><path d="M119.77,83.26a19.08,19.08,0,1,1,19.07-19.07A19.09,19.09,0,0,1,119.77,83.26Zm0-26.15a7.08,7.08,0,1,0,7.07,7.08A7.08,7.08,0,0,0,119.77,57.11Z"/><circle cx="71.09" cy="64.19" r="13.08" fill="#fff"/><path d="M71.09,83.26A19.08,19.08,0,1,1,90.16,64.19,19.09,19.09,0,0,1,71.09,83.26Zm0-26.15a7.08,7.08,0,1,0,7.07,7.08A7.08,7.08,0,0,0,71.09,57.11Z"/><polygon points="95.52 88.66 108.16 88.66 101.84 101.18 95.52 113.7 89.19 101.18 82.87 88.66 95.52 88.66" fill="#ffc312"/><path d="M95.51,119.7a6,6,0,0,1-5.35-3.29l-12.65-25a6,6,0,0,1,5.36-8.71h25.29a6,6,0,0,1,5.36,8.71l-12.65,25A6,6,0,0,1,95.51,119.7Zm-2.89-25,2.89,5.73,2.9-5.73Z"/><rect x="83.36" y="131.91" width="25.55" height="16.75" rx="6.98" transform="translate(236.43 44.15) rotate(90)" fill="#ea2027"/><path d="M96.14,159.06a14.39,14.39,0,0,1-14.38-14.37v-8.8a14.38,14.38,0,0,1,28.75,0v8.8A14.38,14.38,0,0,1,96.14,159.06Zm0-25.54a2.41,2.41,0,0,0-2.38,2.37v8.8a2.38,2.38,0,0,0,4.75,0v-8.8A2.41,2.41,0,0,0,96.14,133.52Z"/></svg>