<svg xmlns="http://www.w3.org/2000/svg" width="149.21" height="219.1" viewBox="0 0 149.21 219.1"><path d="M149.13,78.77a6,6,0,0,1-.38,3.21l-18.13,43.76a6,6,0,0,1-5.07,3.68h-.48a6,6,0,0,1-5.1-2.84L102,97.4a6,6,0,0,1-.86-3.78L106.29,45a6.17,6.17,0,0,1,.27-1.22L119.37,4.15a6,6,0,0,1,11.42,0L143.6,43.73a6.14,6.14,0,0,1,.22.92ZM137,79,133.4,55.73H117.21l-3.93,37.13L124,110.29Zm-6-35.22-5.92-18.25-5.9,18.25Z"/><polygon points="133.4 55.73 137.01 78.95 124.03 110.29 113.28 92.86 117.22 55.73 133.4 55.73" fill="#b53471"/><polygon points="125.08 25.48 130.99 43.73 119.17 43.73 125.08 25.48" fill="#ffc312"/><path d="M48.07,93.62a6,6,0,0,1-.86,3.78l-18,29.19a6,6,0,0,1-5.11,2.84h-.47a6,6,0,0,1-5.08-3.68L.45,82a6,6,0,0,1-.38-3.21l5.3-34.12a5.16,5.16,0,0,1,.23-.92L18.42,4.15a6,6,0,0,1,11.41,0L42.65,43.73A5.51,5.51,0,0,1,42.9,45Zm-12.16-.76L32,55.73H15.8L12.19,79l13,31.34ZM30,43.73,24.12,25.48,18.21,43.73Z"/><polygon points="31.98 55.73 35.91 92.86 25.18 110.29 12.19 78.95 15.8 55.73 31.98 55.73" fill="#b53471"/><polygon points="24.12 25.48 30.04 43.73 18.21 43.73 24.12 25.48" fill="#ffc312"/><polygon points="121.01 169.68 74.6 213.1 28.2 169.68 6.14 78.31 74.6 99.53 143.06 78.31 121.01 169.68" fill="#ea2027"/><path d="M74.6,219.1a6,6,0,0,1-4.1-1.62L24.09,174.06a6.09,6.09,0,0,1-1.73-3L.31,79.71a6,6,0,0,1,7.61-7.13L74.6,93.25l66.68-20.67a6,6,0,0,1,7.61,7.13l-22,91.37a6.09,6.09,0,0,1-1.73,3L78.7,217.48A6,6,0,0,1,74.6,219.1Zm-41-52.58,41,38.36,41-38.36,19.15-79.36-58.37,18.1a6,6,0,0,1-3.56,0L14.45,87.16Z"/><circle cx="106.02" cy="110.23" r="13.08" fill="#fff"/><path d="M106,129.31a19.08,19.08,0,1,1,19.08-19.08A19.1,19.1,0,0,1,106,129.31Zm0-26.16a7.08,7.08,0,1,0,7.08,7.08A7.09,7.09,0,0,0,106,103.15Z"/><circle cx="43.18" cy="110.23" r="13.08" fill="#fff"/><path d="M43.18,129.31a19.08,19.08,0,1,1,19.08-19.08A19.1,19.1,0,0,1,43.18,129.31Zm0-26.16a7.08,7.08,0,1,0,7.08,7.08A7.09,7.09,0,0,0,43.18,103.15Z"/><rect x="65.84" y="100.98" width="17.53" height="32.42" fill="#fda7df"/><path d="M83.37,139.4H65.84a6,6,0,0,1-6-6V101a6,6,0,0,1,6-6H83.37a6,6,0,0,1,6,6V133.4A6,6,0,0,1,83.37,139.4Zm-11.53-12h5.53V107H71.84Z"/><path d="M74.6,210.82a6,6,0,0,1-6-6V164.06a6,6,0,0,1,12,0v40.76A6,6,0,0,1,74.6,210.82Z"/><circle cx="74.6" cy="166.51" r="10.73" fill="#ea2027"/><path d="M74.6,183.24a16.73,16.73,0,1,1,16.73-16.73A16.76,16.76,0,0,1,74.6,183.24Zm0-21.46a4.73,4.73,0,1,0,4.73,4.73A4.73,4.73,0,0,0,74.6,161.78Z"/><line x1="136.81" y1="96.57" x2="120.58" y2="105.15" fill="#fff"/><path d="M120.58,111.15a6,6,0,0,1-2.81-11.3L134,91.26a6,6,0,0,1,5.61,10.61l-16.23,8.59A6,6,0,0,1,120.58,111.15Z"/><line x1="12.39" y1="96.57" x2="28.62" y2="105.15" fill="#fff"/><path d="M28.62,111.15a6,6,0,0,1-2.8-.69L9.59,101.87A6,6,0,1,1,15.2,91.26l16.23,8.59a6,6,0,0,1-2.81,11.3Z"/></svg>