<svg xmlns="http://www.w3.org/2000/svg" width="105.85" height="270.58" viewBox="0 0 105.85 270.58"><ellipse cx="54.1" cy="147.35" rx="35.57" ry="117.24" fill="#fda7df"/><path d="M54.1,270.58c-12.55,0-23.23-13.34-30.89-38.59-6.89-22.69-10.68-52.75-10.68-84.64S16.32,85.4,23.21,62.71c7.66-25.25,18.34-38.6,30.89-38.6S77.33,37.46,85,62.71c6.89,22.69,10.68,52.75,10.68,84.64S91.88,209.3,85,232C77.33,257.24,66.65,270.58,54.1,270.58Zm0-234.47c-4.75,0-12.68,7.88-19.41,30.08-6.55,21.6-10.16,50.42-10.16,81.16s3.61,59.56,10.16,81.15c6.73,22.21,14.66,30.08,19.41,30.08s12.67-7.87,19.41-30.08c6.55-21.59,10.16-50.41,10.16-81.15S80.06,87.79,73.51,66.19C66.77,44,58.84,36.11,54.1,36.11Z"/><circle cx="19.08" cy="114.06" r="13.08" fill="#fff"/><path d="M19.08,133.13a19.08,19.08,0,1,1,19.07-19.07A19.09,19.09,0,0,1,19.08,133.13Zm0-26.15a7.08,7.08,0,1,0,7.07,7.08A7.09,7.09,0,0,0,19.08,107Z"/><circle cx="86.77" cy="114.06" r="13.08" fill="#fff"/><path d="M86.77,133.13a19.08,19.08,0,1,1,19.08-19.07A19.09,19.09,0,0,1,86.77,133.13Zm0-26.15a7.08,7.08,0,1,0,7.08,7.08A7.08,7.08,0,0,0,86.77,107Z"/><ellipse cx="54.1" cy="49.55" rx="19.12" ry="43.55" fill="#c4e538"/><path d="M54.1,99.09C39.78,99.09,29,77.79,29,49.55S39.78,0,54.1,0,79.22,21.3,79.22,49.55,68.42,99.09,54.1,99.09ZM54.1,12C49.64,12,41,25.25,41,49.55S49.64,87.09,54.1,87.09,67.22,73.84,67.22,49.55,58.55,12,54.1,12Z"/><ellipse cx="54.1" cy="49.55" rx="43.55" ry="19.12" fill="#c4e538"/><path d="M54.1,74.67c-28.25,0-49.55-10.8-49.55-25.12S25.85,24.42,54.1,24.42s49.54,10.8,49.54,25.13S82.34,74.67,54.1,74.67Zm0-38.25c-24.3,0-37.55,8.67-37.55,13.13S29.8,62.67,54.1,62.67,91.64,54,91.64,49.55,78.39,36.42,54.1,36.42Z"/><circle cx="54.1" cy="50.04" r="14.88" fill="#ffc312"/><path d="M54.1,70.92A20.88,20.88,0,1,1,75,50,20.91,20.91,0,0,1,54.1,70.92Zm0-29.76A8.88,8.88,0,1,0,63,50,8.89,8.89,0,0,0,54.1,41.16Z"/><circle cx="54.1" cy="228.22" r="11.36"/><path d="M54.1,157.7a6,6,0,0,1-6-6V93.09a6,6,0,0,1,12,0V151.7A6,6,0,0,1,54.1,157.7Z"/><rect x="45.01" y="154.72" width="18.17" height="44.82" rx="7.57" fill="#b53471"/><path d="M54.1,205.54A15.11,15.11,0,0,1,39,190.45V163.8a15.09,15.09,0,0,1,30.17,0v26.65A15.1,15.1,0,0,1,54.1,205.54Zm0-44.82A3.13,3.13,0,0,0,51,163.8v26.65a3.09,3.09,0,1,0,6.17,0V163.8A3.12,3.12,0,0,0,54.1,160.72Z"/></svg>