<svg xmlns="http://www.w3.org/2000/svg" width="360" height="360" viewBox="0 0 360 360"><rect x="91.31" y="161" width="175.78" height="46.67" fill="#1289a7"/><path d="M267.09,213.67H91.31a6,6,0,0,1-6-6V161a6,6,0,0,1,6-6H267.09a6,6,0,0,1,6,6v46.67A6,6,0,0,1,267.09,213.67Zm-169.78-12H261.09V167H97.31Z"/><polygon points="241.34 297.8 117.71 297.99 117.71 62.01 241.34 111.75 241.34 297.8 241.34 297.8" fill="#ffc312"/><path d="M117.71,304a6,6,0,0,1-6-6V62A6,6,0,0,1,120,56.45l123.63,49.74a6,6,0,0,1,3.77,5.56V297.8a6,6,0,0,1-6,6L117.72,304Zm123.64-6.19h0ZM123.71,70.89V292l111.64-.17v-176Z"/><rect x="169.19" y="204.4" width="17.83" height="40.92" fill="#c4e538"/><path d="M187,251.31H169.2a6,6,0,0,1-6-6V204.4a6,6,0,0,1,6-6H187a6,6,0,0,1,6,6v40.91A6,6,0,0,1,187,251.31Zm-11.83-12H181V210.4H175.2Z"/><path d="M149.76,96.61H119.67a6,6,0,0,1,0-12h30.09a6,6,0,0,1,0,12Z"/><path d="M140.8,119H119.67a6,6,0,0,1,0-12H140.8a6,6,0,0,1,0,12Z"/><path d="M149.85,141.28H119.67a6,6,0,1,1,0-12h30.18a6,6,0,0,1,0,12Z"/><path d="M140.8,163.62H119.67a6,6,0,0,1,0-12H140.8a6,6,0,0,1,0,12Z"/><circle cx="213.74" cy="190.14" r="13.08" fill="#fff"/><path d="M213.74,209.22a19.08,19.08,0,1,1,19.08-19.08A19.09,19.09,0,0,1,213.74,209.22Zm0-26.15a7.08,7.08,0,1,0,7.08,7.07A7.08,7.08,0,0,0,213.74,183.07Z"/><circle cx="145.11" cy="189.28" r="13.08" fill="#fff"/><path d="M145.11,208.35a19.08,19.08,0,1,1,19.08-19.07A19.09,19.09,0,0,1,145.11,208.35Zm0-26.15a7.08,7.08,0,1,0,7.08,7.08A7.08,7.08,0,0,0,145.11,182.2Z"/><polygon points="178.6 261.35 185.17 279.67 191.74 297.99 178.6 297.99 165.47 297.99 172.03 279.67 178.6 261.35" fill="#ea2027"/><path d="M191.74,304H165.46a6,6,0,0,1-5.64-8L173,259.32a6,6,0,0,1,11.29,0L197.39,296a6,6,0,0,1-5.65,8ZM174,292h9.23l-4.62-12.87Z"/></svg>