<svg xmlns="http://www.w3.org/2000/svg" width="360" height="360" viewBox="0 0 360 360"><path d="M270,142.24a62,62,0,0,1-.14,11.43l-49.4-30.6a36.62,36.62,0,0,1,6.89-6.87c7.95-5.94,16.5-6.39,26.16-1.36C263.35,120,268.91,129.17,270,142.24Z" fill="#fda7df"/><path d="M263.43,191.26l-9.63,56.36L180,263l-73.79-15.38-9.65-56.36,35.27-25.91,23,7.25,6,21.91a6,6,0,0,0,5.79,4.41h26.78a6,6,0,0,0,5.78-4.41l6-21.91,23-7.25Z" fill="#fda7df"/><path d="M209,158.82l6.75-24.58,52,32.2-2,11.59-32.88-24.15a6,6,0,0,0-5.36-.89Z" fill="#1289a7"/><path d="M215.73,134.24,209,158.82,227.46,153a6,6,0,0,1,5.36.89L265.7,178l2-11.59Zm43.32-30c25.86,13.45,25.14,45.25,21.11,60.51l-15.23,89a6,6,0,0,1-4.69,4.86l-79,16.47a5.61,5.61,0,0,1-1.22.12,5.7,5.7,0,0,1-1.23-.12l-79-16.47a6,6,0,0,1-4.69-4.86l-15.21-89c-4-15.26-4.77-47.06,21.09-60.51,9.64-5,19.08-6.12,28.07-3.27,15.76,5,23.92,20.59,24.25,21.25a.18.18,0,0,1,0,.09,6,6,0,0,1,.39,1s0,0,0,.06v0l17.47,63.58h17.63l17.46-63.58v0s0,0,0-.06a7.07,7.07,0,0,1,.4-1l0-.09c.34-.66,8.5-16.23,24.27-21.25C240,98.08,249.42,99.17,259.05,104.2Zm10.82,49.47a62,62,0,0,0,.14-11.43c-1.1-13.07-6.66-22.29-16.49-27.4-9.66-5-18.21-4.58-26.16,1.36a36.62,36.62,0,0,0-6.89,6.87Zm-16.07,94,9.63-56.36-35.26-25.91-23,7.25-6,21.91a6,6,0,0,1-5.78,4.41H166.61a6,6,0,0,1-5.79-4.41l-6-21.91-23-7.25L96.56,191.26l9.65,56.36L180,263ZM151,158.82l-6.75-24.58-52,32.2,2,11.59,32.9-24.15a5.94,5.94,0,0,1,5.35-.89Zm-60.89-5.15,49.39-30.6a35.75,35.75,0,0,0-6.89-6.87c-7.94-5.94-16.5-6.39-26.16-1.36C96.65,120,91.09,129.17,90,142.24A61.11,61.11,0,0,0,90.13,153.67Z"/><path d="M144.27,134.24,151,158.82,132.54,153a5.94,5.94,0,0,0-5.35.89L94.29,178l-2-11.59Z" fill="#1289a7"/><path d="M139.52,123.07l-49.39,30.6A61.11,61.11,0,0,1,90,142.24c1.1-13.07,6.66-22.29,16.48-27.4,9.66-5,18.22-4.58,26.16,1.36A35.75,35.75,0,0,1,139.52,123.07Z" fill="#fda7df"/><circle cx="222.72" cy="202.38" r="13.08" fill="#fff"/><path d="M222.72,221.46a19.08,19.08,0,1,1,19.07-19.08A19.1,19.1,0,0,1,222.72,221.46Zm0-26.15a7.08,7.08,0,1,0,7.07,7.07A7.08,7.08,0,0,0,222.72,195.31Z"/><circle cx="138.18" cy="202.38" r="13.08" fill="#fff"/><path d="M138.18,221.46a19.08,19.08,0,1,1,19.07-19.08A19.1,19.1,0,0,1,138.18,221.46Zm0-26.15a7.08,7.08,0,1,0,7.07,7.07A7.08,7.08,0,0,0,138.18,195.31Z"/><polygon points="200.2 259.35 200.2 243.74 179.17 235.94 158.13 243.74 158.13 259.35 179.17 267.15 200.2 259.35" fill="#ea2027"/><path d="M179.17,273.15a6,6,0,0,1-2.09-.37L156,265a6,6,0,0,1-3.91-5.63V243.74a6,6,0,0,1,3.91-5.62l21-7.81a6,6,0,0,1,4.17,0l21,7.81a6,6,0,0,1,3.91,5.62v15.61a6,6,0,0,1-3.91,5.63l-21,7.8A6,6,0,0,1,179.17,273.15Zm-15-18,15,5.57,15-5.57v-7.26l-15-5.58-15,5.58Z"/><ellipse cx="180" cy="213.93" rx="10.4" ry="18.72" fill="#12cbc4"/><path d="M180,238.65c-9.35,0-16.4-10.62-16.4-24.72s7.05-24.72,16.4-24.72,16.4,10.63,16.4,24.72S189.35,238.65,180,238.65Zm0-37.44c-1,.18-4.38,4.52-4.38,12.72S179,226.47,180,226.66c1-.19,4.39-4.53,4.39-12.73S181,201.4,180,201.21Z"/></svg>