<svg xmlns="http://www.w3.org/2000/svg" width="360" height="360" viewBox="0 0 360 360"><path d="M254.53,149.22a6,6,0,0,1-.38,3.21L236,196.19a6,6,0,0,1-5.07,3.68h-.48a6,6,0,0,1-5.1-2.84l-18-29.19a6,6,0,0,1-.86-3.78l5.16-48.67a6.17,6.17,0,0,1,.27-1.22L224.77,74.6a6,6,0,0,1,11.42,0L249,114.18a6.14,6.14,0,0,1,.22.92Zm-12.12.18-3.61-23.22H222.61l-3.93,37.13,10.75,17.43Zm-6-35.22-5.92-18.25-5.9,18.25Z"/><polygon points="238.8 126.18 242.41 149.4 229.43 180.74 218.68 163.31 222.61 126.18 238.8 126.18" fill="#b53471"/><polygon points="230.47 95.93 236.39 114.18 224.57 114.18 230.47 95.93" fill="#ffc312"/><path d="M153.47,164.07a6,6,0,0,1-.86,3.78l-18,29.19a6,6,0,0,1-5.11,2.84h-.47a6,6,0,0,1-5.08-3.68l-18.12-43.76a6,6,0,0,1-.38-3.21l5.3-34.12a5.16,5.16,0,0,1,.23-.92L123.82,74.6a6,6,0,0,1,11.41,0l12.82,39.58a5.51,5.51,0,0,1,.25,1.22Zm-12.16-.76-3.93-37.13H121.2l-3.61,23.22,13,31.34Zm-5.88-49.13-5.91-18.25-5.91,18.25Z"/><polygon points="137.38 126.18 141.31 163.31 130.57 180.74 117.59 149.4 121.2 126.18 137.38 126.18" fill="#b53471"/><polygon points="129.52 95.93 135.43 114.18 123.61 114.18 129.52 95.93" fill="#ffc312"/><polygon points="226.41 240.13 180 283.55 133.59 240.13 111.54 148.76 180 169.98 248.46 148.76 226.41 240.13" fill="#ea2027"/><path d="M180,289.55a6,6,0,0,1-4.1-1.62l-46.41-43.42a6.09,6.09,0,0,1-1.73-3l-22.05-91.37a6,6,0,0,1,7.61-7.13L180,163.7,246.68,143a6,6,0,0,1,7.61,7.13l-22,91.37a6,6,0,0,1-1.74,3l-46.4,43.42A6,6,0,0,1,180,289.55ZM139,237l41,38.36L221,237l19.15-79.36-58.37,18.1a6,6,0,0,1-3.56,0l-58.37-18.1Z"/><circle cx="211.42" cy="180.68" r="13.08" fill="#fff"/><path d="M211.42,199.76a19.08,19.08,0,1,1,19.08-19.08A19.1,19.1,0,0,1,211.42,199.76Zm0-26.15a7.08,7.08,0,1,0,7.08,7.07A7.08,7.08,0,0,0,211.42,173.61Z"/><circle cx="148.58" cy="180.68" r="13.08" fill="#fff"/><path d="M148.58,199.76a19.08,19.08,0,1,1,19.08-19.08A19.1,19.1,0,0,1,148.58,199.76Zm0-26.15a7.08,7.08,0,1,0,7.08,7.07A7.08,7.08,0,0,0,148.58,173.61Z"/><rect x="171.23" y="171.43" width="17.53" height="32.42" fill="#fda7df"/><path d="M188.77,209.85H171.24a6,6,0,0,1-6-6V171.43a6,6,0,0,1,6-6h17.53a6,6,0,0,1,6,6v32.42A6,6,0,0,1,188.77,209.85Zm-11.53-12h5.53V177.43h-5.53Z"/><path d="M180,281.27a6,6,0,0,1-6-6V234.51a6,6,0,0,1,12,0v40.76A6,6,0,0,1,180,281.27Z"/><circle cx="180" cy="236.96" r="10.73" fill="#ea2027"/><path d="M180,253.69A16.73,16.73,0,1,1,196.73,237,16.75,16.75,0,0,1,180,253.69Zm0-21.46a4.73,4.73,0,1,0,4.73,4.73A4.73,4.73,0,0,0,180,232.23Z"/><line x1="242.21" y1="167.02" x2="225.98" y2="175.6" fill="#fff"/><path d="M226,181.6a6,6,0,0,1-2.81-11.3l16.23-8.58a6,6,0,1,1,5.61,10.6l-16.23,8.59A6,6,0,0,1,226,181.6Z"/><line x1="117.79" y1="167.02" x2="134.02" y2="175.6" fill="#fff"/><path d="M134,181.6a6,6,0,0,1-2.8-.69L115,172.32a6,6,0,1,1,5.61-10.6l16.23,8.58A6,6,0,0,1,134,181.6Z"/></svg>