<svg xmlns="http://www.w3.org/2000/svg" width="360" height="360" viewBox="0 0 360 360"><ellipse cx="181.17" cy="192.06" rx="35.57" ry="117.24" fill="#fda7df"/><path d="M181.17,315.29c-12.55,0-23.23-13.34-30.89-38.59C143.4,254,139.6,224,139.6,192.06s3.8-61.95,10.68-84.64c7.66-25.25,18.34-38.6,30.89-38.6s23.23,13.35,30.89,38.6c6.89,22.69,10.68,52.75,10.68,84.64S219,254,212.06,276.7C204.4,302,193.72,315.29,181.17,315.29Zm0-234.47c-4.74,0-12.67,7.88-19.41,30.08-6.55,21.59-10.16,50.42-10.16,81.16s3.61,59.56,10.16,81.15c6.74,22.2,14.67,30.08,19.41,30.08s12.68-7.88,19.41-30.08c6.55-21.59,10.16-50.41,10.16-81.15s-3.61-59.57-10.16-81.16C193.85,88.7,185.92,80.82,181.17,80.82Z"/><circle cx="146.15" cy="158.77" r="13.08" fill="#fff"/><path d="M146.15,177.84a19.08,19.08,0,1,1,19.08-19.07A19.1,19.1,0,0,1,146.15,177.84Zm0-26.15a7.08,7.08,0,1,0,7.08,7.08A7.09,7.09,0,0,0,146.15,151.69Z"/><circle cx="213.85" cy="158.77" r="13.08" fill="#fff"/><path d="M213.85,177.84a19.08,19.08,0,1,1,19.08-19.07A19.1,19.1,0,0,1,213.85,177.84Zm0-26.15a7.08,7.08,0,1,0,7.08,7.08A7.09,7.09,0,0,0,213.85,151.69Z"/><ellipse cx="181.17" cy="94.25" rx="19.12" ry="43.55" fill="#c4e538"/><path d="M181.17,143.8c-14.32,0-25.12-21.3-25.12-49.55s10.8-49.54,25.12-49.54S206.29,66,206.29,94.25,195.49,143.8,181.17,143.8Zm0-87.09c-4.45,0-13.12,13.25-13.12,37.54s8.67,37.55,13.12,37.55,13.12-13.25,13.12-37.55S185.62,56.71,181.17,56.71Z"/><ellipse cx="181.17" cy="94.25" rx="43.55" ry="19.12" fill="#c4e538"/><path d="M181.17,119.37c-28.24,0-49.54-10.79-49.54-25.12s21.3-25.12,49.54-25.12,49.55,10.8,49.55,25.12S209.42,119.37,181.17,119.37Zm0-38.24c-24.29,0-37.54,8.67-37.54,13.12s13.25,13.12,37.54,13.12,37.55-8.66,37.55-13.12S205.46,81.13,181.17,81.13Z"/><circle cx="181.17" cy="94.75" r="14.88" fill="#ffc312"/><path d="M181.17,115.63a20.89,20.89,0,1,1,20.88-20.88A20.91,20.91,0,0,1,181.17,115.63Zm0-29.77a8.89,8.89,0,1,0,8.88,8.89A8.89,8.89,0,0,0,181.17,85.86Z"/><circle cx="181.17" cy="272.92" r="11.36"/><path d="M181.17,202.41a6,6,0,0,1-6-6V137.8a6,6,0,0,1,12,0v58.61A6,6,0,0,1,181.17,202.41Z"/><rect x="172.09" y="199.43" width="18.17" height="44.82" rx="7.57" fill="#b53471"/><path d="M181.17,250.24a15.1,15.1,0,0,1-15.08-15.08V208.51a15.09,15.09,0,0,1,30.17,0v26.65A15.1,15.1,0,0,1,181.17,250.24Zm0-44.81a3.12,3.12,0,0,0-3.08,3.08v26.65a3.09,3.09,0,0,0,6.17,0V208.51A3.13,3.13,0,0,0,181.17,205.43Z"/></svg>