<svg xmlns="http://www.w3.org/2000/svg" width="148" height="480" viewBox="0 0 148 480"><path d="M144.47,10.78a5,5,0,0,0-5.08-8.61L74,40.82,8.61,2.17a5,5,0,0,0-5.08,8.61l26.22,15.5V67L3.53,82.48a5,5,0,1,0,5.08,8.61L74,52.44l65.39,38.65a5,5,0,0,0,5.08-8.61L118.25,67V26.28ZM39.75,61.07V32.19L64.17,46.63Zm68.5-20h-6a5,5,0,1,0,0,10h6v10L83.83,46.63l24.42-14.44Z"/><path d="M36.86,165.53a5,5,0,0,0-5,5v33.82L22,212.49a5,5,0,0,0,6.38,7.71l10.14-8.4h84.25a5,5,0,1,0,0-10H50.62l31.74-26.27h40.43a5,5,0,0,0,5-5V135.58c0-.08,0-.15,0-.23a4.78,4.78,0,0,0-.06-.53,3.73,3.73,0,0,0-.09-.46c0-.15-.09-.31-.14-.46s-.12-.32-.19-.47-.14-.27-.22-.4a4.4,4.4,0,0,0-.3-.45c0-.06-.08-.13-.13-.19s-.11-.1-.16-.15a4.31,4.31,0,0,0-.37-.37q-.18-.17-.36-.3a4.81,4.81,0,0,0-.41-.27c-.14-.08-.28-.16-.43-.23a3,3,0,0,0-.45-.18l-.46-.14a3.55,3.55,0,0,0-.47-.09l-.51-.06-.23,0H36.86a5,5,0,1,0,0,10h72.05L78.76,165.53Zm5,30.55V175.53H66.68Zm75.93-49.87v19.32H94.44Z"/><path d="M133.51,422.9,59.2,450.77,17.73,435.22V395.68a5,5,0,0,0-10,0v77.85c0,.11,0,.22,0,.34a5.35,5.35,0,0,0,.05.55c0,.18.09.36.14.53s0,.22.09.33a.93.93,0,0,0,0,.1c0,.1.09.19.13.29s.18.35.28.52l.17.25a6.26,6.26,0,0,0,.41.49l.16.18a5.75,5.75,0,0,0,.67.55l.1.06a4.22,4.22,0,0,0,.66.36l.29.11a5.58,5.58,0,0,0,.58.18l.28.07a5.49,5.49,0,0,0,.9.09,5.11,5.11,0,0,0,.95-.1c.13,0,.25-.07.38-.1l.43-.12L59.2,461.44l42.69,16a3.45,3.45,0,0,0,.43.12l.38.11a5.09,5.09,0,0,0,1,.09,5.49,5.49,0,0,0,.9-.09l.28-.06a3.93,3.93,0,0,0,.58-.19l.28-.11a4.83,4.83,0,0,0,.67-.36l.09,0a5.1,5.1,0,0,0,.67-.56,1.45,1.45,0,0,0,.17-.18,3.17,3.17,0,0,0,.4-.49l.18-.25c.1-.16.19-.34.28-.52s.09-.19.13-.29a.41.41,0,0,0,0-.09c0-.11,0-.22.08-.33a5.44,5.44,0,0,0,.15-.54,4.89,4.89,0,0,0,0-.55c0-.11,0-.22,0-.34V442.9L137,432.27a5,5,0,0,0-3.51-9.37ZM17.73,466.31V445.9L45,456.1Zm80.92-.75L73.44,456.1l25.21-9.45Z"/><path d="M81,257.22c-.07-.06-.15-.1-.23-.16a4.91,4.91,0,0,0-.44-.31c-.13-.08-.27-.15-.41-.22a4.43,4.43,0,0,0-.45-.2l-.48-.15-.45-.1A4.93,4.93,0,0,0,78,256a2.66,2.66,0,0,0-.28,0h-.16l-.54.06-.45.07c-.16,0-.32.1-.47.15a4.13,4.13,0,0,0-.45.17,4.36,4.36,0,0,0-.42.23,4.78,4.78,0,0,0-.42.26,3.17,3.17,0,0,0-.35.29,4.49,4.49,0,0,0-.39.36l-.12.12a2,2,0,0,0-.17.23,3.41,3.41,0,0,0-.3.44,3.3,3.3,0,0,0-.23.41c-.07.15-.14.3-.2.45s-.1.32-.15.48-.07.3-.1.45a4.93,4.93,0,0,0,0,.54,2.4,2.4,0,0,0,0,.28v47.53L42,340.13H7a5,5,0,1,0,0,10H77.75a5,5,0,0,0,5-5V312.59l21.43-22,33.52,29.11a5,5,0,1,0,6.56-7.55Zm-8.28,82.91H56l16.79-17.26Zm10-41.88V272l13.86,12Z"/></svg>