<svg id="Layer_1" data-name="Layer 1" xmlns="http://www.w3.org/2000/svg" viewBox="0 0 360 360"><defs><style>.cls-1{fill:#fff;}.cls-2{font-size:145.62px;font-family:HYkanB;}.cls-3,.cls-4{fill:none;stroke-miterlimit:10;}.cls-3{stroke:#000;stroke-width:6px;}.cls-4{stroke:#231f20;stroke-width:8px;}</style></defs><rect class="cls-1" width="360" height="360"/><text class="cls-2" transform="translate(49.48 174.91)">페르소나</text><polygon class="cls-1" points="423.9 133.69 421.36 112.34 372.73 118.13 374.58 133.69 336.65 133.69 336.65 305.24 471 305.24 471 133.69 423.9 133.69"/><rect class="cls-1" x="189.81" y="-1.17" width="133.22" height="138.13"/><path class="cls-3" d="M206.43,63.76c3.84,0,3.84,8,7.69,8s3.85-8,7.7-8,3.84,8,7.69,8,3.85-8,7.7-8,3.85,8,7.7,8,7.71-9.56,10.48-6.88-6.78,6.6-6.78,10.32,8,3.72,8,7.44-8,3.73-8,7.45,8,3.72,8,7.45-8,3.72-8,7.45,3.91,2,6.68,4.47c3.08,2.77,1.46,7,5.6,7s4.14-8,8.28-8,4.14,8,8.29,8,4.14-8,8.28-8,4.14,8,8.29,8,4.14-8,8.28-8"/><text class="cls-2" transform="translate(-247.39 311.03)">페르소나</text><polygon class="cls-1" points="127.04 269.81 124.49 248.46 75.86 254.26 77.72 269.81 39.78 269.81 39.78 441.36 174.13 441.36 174.13 269.81 127.04 269.81"/><circle class="cls-4" cx="107.08" cy="282.02" r="10.12"/><rect class="cls-1" x="-107.06" y="134.95" width="133.22" height="138.13"/><path class="cls-3" d="M-90.44,199.88c3.85,0,3.85,8,7.69,8s3.85-8,7.7-8,3.85,8,7.7,8,3.84-8,7.69-8,3.85,8,7.7,8,7.72-9.55,10.48-6.88-6.77,6.6-6.77,10.32,8,3.72,8,7.45-8,3.72-8,7.44,8,3.73,8,7.45-8,3.72-8,7.45,3.9,2,6.67,4.48c3.08,2.77,1.46,7,5.6,7s4.14-8,8.29-8,4.14,8,8.28,8,4.14-8,8.28-8,4.14,8,8.29,8,4.14-8,8.29-8"/><rect class="cls-1" x="318.94" y="5.37" width="375.96" height="220.67"/><rect class="cls-1" x="-273.61" y="143.49" width="302.41" height="250.1"/></svg>