<svg xmlns="http://www.w3.org/2000/svg" width="360" height="360" viewBox="0 0 360 360"><path d="M235.43,162.83l12.88,73L180,275.07,111.7,235.8l12.86-73a4.37,4.37,0,0,0,.42-.8h46.81l3.2,4.82,0,0a6,6,0,0,0,.64.78l.17.17a8.81,8.81,0,0,0,.82.69s0,0,0,0l.12.06a4.59,4.59,0,0,0,.57.32,2.18,2.18,0,0,0,.27.11c.15.07.31.13.48.19s.2.06.31.1l.48.11.3.05.72.06h.14l.71-.06.31-.05.48-.11.32-.1.48-.18c.08,0,.18-.08.26-.13a3.43,3.43,0,0,0,.56-.31l.12-.06,0,0a7.9,7.9,0,0,0,.84-.69,1.22,1.22,0,0,0,.15-.17,6.11,6.11,0,0,0,.65-.78s0,0,0,0l3.2-4.82H235A6.09,6.09,0,0,0,235.43,162.83Z" fill="#12cbc4"/><path d="M243.4,145.37l-11.86-11.64,1-1a6,6,0,0,0,4.25,1.76h20.48l-12.6,12.6A5.88,5.88,0,0,0,243.4,145.37Z" fill="#ffc312"/><polygon points="231.03 150.03 196.17 150.03 209.91 129.31 231.03 150.03" fill="#ffc312"/><path d="M230.74,128.51a6,6,0,0,0,1.75,4.24l-1,1-14.88-14.61,14.08-21.21Z" fill="#ffc312"/><polygon points="201.18 120.74 181.77 150.03 178.24 150.03 159.09 121.15 180.56 100.5 201.18 120.74" fill="#ffc312"/><path d="M178.43,169.33c-.11,0-.22-.06-.31-.1s-.33-.12-.48-.19a2.18,2.18,0,0,1-.27-.11,4.59,4.59,0,0,1-.57-.32l-.12-.06s0,0,0,0a8.81,8.81,0,0,1-.82-.69l-.17-.17a6,6,0,0,1-.64-.78l0,0-3.2-4.82H125a4.37,4.37,0,0,1-.42.8l-12.86,73L180,275.07l68.31-39.27-12.88-73a6.09,6.09,0,0,1-.42-.8h-46.8l-3.2,4.82s0,0,0,0a6.11,6.11,0,0,1-.65.78,1.22,1.22,0,0,1-.15.17,7.9,7.9,0,0,1-.84.69l0,0-.12.06a3.43,3.43,0,0,1-.56.31c-.08.05-.18.09-.26.13l-.48.18-.32.1-.48.11-.31.05-.71.06h-.14l-.72-.06-.3-.05ZM102.06,244.1a6,6,0,0,1-2.91-6.25l13.5-76.51-28.6-28.59a6,6,0,0,1,4.25-10.24h29V78a6,6,0,0,1,11-3.31L152.34,111l24.1-23.18a6,6,0,0,1,8.36,0l23.14,22.72L231.73,74.7a6,6,0,0,1,11,3.31v44.5h29A6,6,0,0,1,276,132.75l-28.59,28.59,13.5,76.51a6,6,0,0,1-2.92,6.25L183,287.19a6,6,0,0,1-6,0Zm142.56-97,12.6-12.6H236.74a6,6,0,0,1-6-6V97.91l-14.08,21.21,14.88,14.61,11.86,11.64A5.88,5.88,0,0,1,244.62,147.11ZM196.17,150H231l-21.12-20.72Zm-14.4,0,19.41-29.29L180.55,100.5l-21.46,20.65L178.24,150Zm-17.93,0-13.55-20.42L129.05,150Zm-20.29-30.58L129.27,97.91v30.6a6,6,0,0,1-6,6H102.78l12.6,12.6a5.7,5.7,0,0,1,1.26-1.79l11.93-11.47Z"/><polygon points="150.29 129.61 163.84 150.03 129.05 150.03 150.29 129.61" fill="#ffc312"/><path d="M129.27,128.51V97.91l14.28,21.54-15,14.4-1.06-1.1A6,6,0,0,0,129.27,128.51Z" fill="#ffc312"/><path d="M128.57,133.85l-11.93,11.47a5.7,5.7,0,0,0-1.26,1.79l-12.6-12.6h20.49a6,6,0,0,0,4.24-1.76Z" fill="#ffc312"/><circle cx="144.98" cy="186.46" r="13.08" fill="#fff"/><path d="M145,205.53a19.08,19.08,0,1,1,19.08-19.07A19.09,19.09,0,0,1,145,205.53Zm0-26.15a7.08,7.08,0,1,0,7.08,7.08A7.09,7.09,0,0,0,145,179.38Z"/><circle cx="215.02" cy="186.46" r="13.08" fill="#fff"/><path d="M215,205.53a19.08,19.08,0,1,1,19.08-19.07A19.09,19.09,0,0,1,215,205.53Zm0-26.15a7.08,7.08,0,1,0,7.08,7.08A7.09,7.09,0,0,0,215,179.38Z"/><polygon points="180 221.03 169.91 206.2 159.82 191.37 180 191.37 200.18 191.37 190.09 206.2 180 221.03" fill="#ee5a24"/><path d="M180,227h0a6,6,0,0,1-5-2.63l-20.18-29.66a6,6,0,0,1,5-9.37h40.36a6,6,0,0,1,5,9.37L185,224.4A6,6,0,0,1,180,227Zm-8.84-29.66,8.84,13,8.84-13Z"/><circle cx="180" cy="247.17" r="16.15" fill="#ea2027"/><path d="M180,269.32a22.15,22.15,0,1,1,22.15-22.15A22.16,22.16,0,0,1,180,269.32ZM180,237a10.15,10.15,0,1,0,10.15,10.14A10.15,10.15,0,0,0,180,237Z"/></svg>