<svg xmlns="http://www.w3.org/2000/svg" width="360" height="360" viewBox="0 0 360 360"><path d="M279.64,197.39v0s0,.08,0,.13a5.91,5.91,0,0,1-.11,1c0,.24-.13.46-.2.69s-.07.3-.13.44-.26.47-.39.71-.11.21-.17.32a5,5,0,0,1-.75.9l-93.64,93.64a6,6,0,0,1-8.48,0L82.17,201.69s0,0,0,0l0,0c-.08-.08-.14-.18-.21-.26a4.53,4.53,0,0,1-.51-.63,2.91,2.91,0,0,1-.27-.49,3.81,3.81,0,0,1-.29-.53c-.07-.18-.12-.38-.18-.57a5,5,0,0,1-.17-.55,5.78,5.78,0,0,1-.08-.74,3,3,0,0,1,0-.43v-.05a6.53,6.53,0,0,1,.08-.76,6,6,0,0,1,.93-2.56l.06-.07a5.47,5.47,0,0,1,.68-.83h0l67.62-67.62a34.9,34.9,0,1,1,60.53,0l67.62,67.62a4.93,4.93,0,0,1,.74.9c.06.09.1.19.15.27.14.26.3.5.41.76s.07.26.12.4a5.19,5.19,0,0,1,.21.73A5.11,5.11,0,0,1,279.64,197.39ZM198.4,264.16l60.77-60.77-36.07,0-.29,27.12a6,6,0,0,1-6,5.94h-38a6,6,0,0,1-6-6.11l1.12-59.48-20.56-.24L153,197.05A6,6,0,0,1,147,203l-46.28.34,60.86,60.86,14.59-11.93a6,6,0,0,1,7.6,0Zm60.75-72.77-56.6-56.6a34.77,34.77,0,0,1-45.09,0L101,191.3l40.12-.3.36-26.56a6,6,0,0,1,6.07-5.91l32.58.38a6,6,0,0,1,4.23,1.82A6.08,6.08,0,0,1,186,165l-1.12,59.41h26l.3-27.13a6,6,0,0,1,6-5.94Zm-57.86-74.83a22.9,22.9,0,1,0-42.57,0l17-17a6,6,0,0,1,8.48,0Zm-7.27,9.7-14-14-14,14a22.75,22.75,0,0,0,28,0Zm-14,156.3,9.86-9.87L180,264.63l-9.87,8.06Z"/><path d="M259.17,203.39,198.4,264.16l-14.6-11.93a6,6,0,0,0-7.6,0l-14.59,11.93L100.75,203.3,147,203a6,6,0,0,0,5.95-5.91l.36-26.45,20.56.24-1.12,59.48a6,6,0,0,0,6,6.11h38a6,6,0,0,0,6-5.94l.29-27.12Z" fill="#9980fa"/><path d="M202.55,134.79l56.6,56.6-42,0a6,6,0,0,0-6,5.94l-.3,27.13h-26L186,165a6.08,6.08,0,0,0-1.7-4.29,6,6,0,0,0-4.23-1.82l-32.58-.38a6,6,0,0,0-6.07,5.91L141.07,191l-40.12.3,56.51-56.51a34.77,34.77,0,0,0,45.09,0Z" fill="#12cbc4"/><path d="M202.9,108.19a22.8,22.8,0,0,1-1.61,8.37l-17-17a6,6,0,0,0-8.48,0l-17,17a22.59,22.59,0,0,1-1.61-8.37,22.9,22.9,0,1,1,45.79,0Z" fill="#9980fa"/><path d="M180,112.24l14,14a22.75,22.75,0,0,1-28,0Z" fill="#ffc312"/><polygon points="189.87 272.69 180.01 282.56 170.14 272.69 180.01 264.63 189.87 272.69" fill="#ea2027"/><polygon points="163.08 215.55 180 251.01 196.92 215.55 180 180.09 163.08 215.55" fill="#ee5a24"/><path d="M180,257a6,6,0,0,1-5.41-3.42l-16.92-35.46a6,6,0,0,1,0-5.17l16.92-35.45a6,6,0,0,1,10.83,0L202.34,213a6,6,0,0,1,0,5.17l-16.92,35.46A6,6,0,0,1,180,257Zm-10.27-41.46L180,237.08l10.28-21.53L180,194Z"/><circle cx="134.31" cy="197.36" r="13.08" fill="#fff"/><path d="M134.31,216.44a19.08,19.08,0,1,1,19.08-19.08A19.09,19.09,0,0,1,134.31,216.44Zm0-26.16a7.08,7.08,0,1,0,7.08,7.08A7.08,7.08,0,0,0,134.31,190.28Z"/><circle cx="230.25" cy="197.36" r="13.08" fill="#fff"/><path d="M230.25,216.44a19.08,19.08,0,1,1,19.07-19.08A19.1,19.1,0,0,1,230.25,216.44Zm0-26.16a7.08,7.08,0,1,0,7.07,7.08A7.09,7.09,0,0,0,230.25,190.28Z"/></svg>