<svg xmlns="http://www.w3.org/2000/svg" width="360" height="360" viewBox="0 0 360 360"><path d="M184.45,88.3c3.21,3.54,78.62,87.21,74.43,131-1.37,14.34-14.59,34.16-39.29,58.92-17.89,17.91-35.11,31.75-35.84,32.34l-3.74,3-3.76-3c-.72-.59-17.95-14.43-35.83-32.34-24.71-24.76-37.92-44.58-39.3-58.92-4.19-43.82,71.23-127.49,74.43-131L180,83.4Zm62.49,129.89c2.86-30-43.79-90.3-66.93-116.82-23.15,26.53-69.81,86.88-66.94,116.82,1.31,13.71,18.79,34.59,36.86,52.6h60.15C228.15,252.78,245.62,231.9,246.94,218.19Zm-49.4,64.6H162.47c6.54,6,12.65,11.32,17.54,15.36C184.88,294.11,191,288.81,197.54,282.79Z"/><path d="M180,101.37c23.14,26.52,69.79,86.86,66.93,116.82-1.32,13.71-18.79,34.59-36.86,52.6H149.93c-18.07-18-35.55-38.89-36.86-52.6C110.2,188.25,156.86,127.9,180,101.37Z" fill="#12cbc4"/><path d="M162.47,282.79h35.07c-6.54,6-12.66,11.32-17.53,15.36C175.12,294.11,169,288.81,162.47,282.79Z" fill="#ea2027"/><circle cx="221.05" cy="203.45" r="13.08" fill="#fff"/><path d="M221.05,222.53a19.08,19.08,0,1,1,19.08-19.08A19.1,19.1,0,0,1,221.05,222.53Zm0-26.16a7.08,7.08,0,1,0,7.08,7.08A7.09,7.09,0,0,0,221.05,196.37Z"/><circle cx="138.22" cy="204.14" r="13.08" fill="#fff"/><path d="M138.22,223.22a19.08,19.08,0,1,1,19.08-19.08A19.1,19.1,0,0,1,138.22,223.22Zm0-26.15a7.08,7.08,0,1,0,7.08,7.07A7.08,7.08,0,0,0,138.22,197.07Z"/><path d="M180,190.14a6,6,0,0,1-6-6V115.53a6,6,0,1,1,12,0v68.61A6,6,0,0,1,180,190.14Z"/><path d="M157.25,177.91a6,6,0,0,1-6-6v-28a6,6,0,0,1,12,0v28A6,6,0,0,1,157.25,177.91Z"/><line x1="202.76" y1="143.89" x2="202.76" y2="171.91" fill="#fff"/><path d="M202.76,177.91a6,6,0,0,1-6-6v-28a6,6,0,0,1,12,0v28A6,6,0,0,1,202.76,177.91Z"/><rect x="167.72" y="204.39" width="25.03" height="53.82" fill="#ffc312"/><path d="M192.75,264.21h-25a6,6,0,0,1-6-6V204.39a6,6,0,0,1,6-6h25a6,6,0,0,1,6,6v53.82A6,6,0,0,1,192.75,264.21Zm-19-12h13V210.39h-13Z"/><path d="M180,281.07a6,6,0,0,1-6-6V263.28a6,6,0,0,1,12,0v11.79A6,6,0,0,1,180,281.07Z"/><path d="M207.64,210.11H154.89a6,6,0,0,1,0-12h52.75a6,6,0,0,1,0,12Z"/><path d="M234.68,76.19v70.15a6,6,0,0,1-6,6H131.54a6,6,0,0,1-6-6V76.19a6,6,0,0,1,6-6h97.14A6,6,0,0,1,234.68,76.19Zm-12,64.15v-14H137.54v14Zm0-25.95V103.86H137.54v10.53Zm0-22.53V82.19H137.54v9.67Z"/><rect x="137.54" y="126.39" width="85.14" height="13.96" fill="#1289a7"/><rect x="137.54" y="103.86" width="85.14" height="10.52" fill="#9980fa"/><rect x="137.54" y="82.19" width="85.14" height="9.67" fill="#1289a7"/><path d="M296.41,53.58a1.5,1.5,0,0,0,0-3,1.5,1.5,0,0,0,0,3Z" fill="#fda7df"/></svg>